<?xml version="1.0" encoding="UTF-8" standalone="no"?>
<!-- Created with Inkscape (http://www.inkscape.org/) -->

<svg
   width="64"
   height="64"
   viewBox="0 0 16.933333 16.933335"
   version="1.1"
   id="svg5"
   inkscape:version="1.3 (0e150ed6c4, 2023-07-21)"
   sodipodi:docname="favicon.svg"
   xmlns:inkscape="http://www.inkscape.org/namespaces/inkscape"
   xmlns:sodipodi="http://sodipodi.sourceforge.net/DTD/sodipodi-0.dtd"
   xmlns="http://www.w3.org/2000/svg"
   xmlns:svg="http://www.w3.org/2000/svg"
   xmlns:rdf="http://www.w3.org/1999/02/22-rdf-syntax-ns#"
   xmlns:cc="http://creativecommons.org/ns#"
   xmlns:dc="http://purl.org/dc/elements/1.1/">
  <title
     id="title5288">Al-Mujahidin Mosque Favicon Logo</title>
  <sodipodi:namedview
     id="namedview7"
     pagecolor="#ffffff"
     bordercolor="#000000"
     borderopacity="0.25"
     inkscape:showpageshadow="2"
     inkscape:pageopacity="0.0"
     inkscape:pagecheckerboard="0"
     inkscape:deskcolor="#d1d1d1"
     inkscape:document-units="px"
     showgrid="false"
     inkscape:zoom="4.203125"
     inkscape:cx="5.472119"
     inkscape:cy="21.888476"
     inkscape:window-width="1920"
     inkscape:window-height="1015"
     inkscape:window-x="0"
     inkscape:window-y="0"
     inkscape:window-maximized="1"
     inkscape:current-layer="g1987" />
  <defs
     id="defs2" />
  <g
     inkscape:label="Layer 1"
     inkscape:groupmode="layer"
     id="layer1"
     transform="translate(-50.37438,-108.14566)">
    <g
       id="g1987"
       transform="matrix(1.1582427,0,0,1.1582427,-11.533441,-18.521194)">
      <g
         id="g2"
         transform="matrix(0.01493344,0,0,0.01493344,52.857693,108.76832)">
        <path
           style="color:#000000;fill:#bde6fc;stroke-linecap:square;stroke-linejoin:round;-inkscape-stroke:none;paint-order:stroke fill markers"
           d="m 522.60937,63.003906 c -8.7375,2.054189 -16.00644,8.086104 -19.63671,16.294922 -20.14486,45.577502 -42.79981,71.394992 -103.53125,96.123042 -51.59533,21.00831 -82.06694,47.21791 -93.32032,79.4043 -1.17058,3.34804 -1.95004,6.67222 -2.64257,9.98438 -3.36395,-0.36466 -6.7648,-0.65113 -10.31055,-0.57227 -34.08857,0.75821 -68.4315,21.63884 -104.35547,64.2168 -42.28488,50.11773 -73.83855,63.68497 -123.408203,68.75586 -24.738084,2.53477 -34.711192,33.22903 -16.1875,49.82031 37.119186,33.23655 54.671123,62.77242 59.421873,128.17383 4.03624,55.56208 19.54717,92.63988 46.68164,113.28711 2.8214,2.14686 5.73896,3.91423 8.67383,5.5957 -1.38586,3.08568 -2.70806,6.22953 -3.72852,9.625 -9.81365,32.65411 -0.56706,71.76896 28.82618,119.0918 34.59763,55.70279 37.75429,89.91232 27.25976,138.62109 -5.23146,24.30927 20.87643,43.27712 42.37891,30.78906 43.0817,-25.03243 76.59425,-32.60159 140.26172,-16.91015 54.08963,13.33089 94.14653,10.03865 122.16992,-9.38477 2.91473,-2.02024 5.49694,-4.25126 8.00391,-6.52344 2.50702,2.27224 5.09105,4.50316 8.00585,6.52344 28.02343,19.4234 68.0803,22.71566 122.16993,9.38477 63.6595,-15.68963 97.18155,-8.12077 140.25586,16.90429 20.77074,12.06112 47.60911,-6.48242 42.37695,-30.79101 -10.49268,-48.70614 -7.33818,-82.91345 27.25781,-138.61328 29.39135,-47.31995 38.63837,-86.43232 28.82813,-119.08594 -1.02052,-3.39681 -2.3423,-6.54206 -3.72852,-9.62891 2.93598,-1.68206 5.85536,-3.4498 8.67774,-5.59765 27.1325,-20.64809 42.64154,-57.72578 46.67773,-113.28711 4.75075,-65.39928 22.30912,-94.93603 59.4297,-128.17383 8.4453,-7.56427 11.6329,-19.39866 8.1294,-30.18135 -3.5035,-10.7827 -13.0384,-18.48332 -24.31691,-19.63896 -49.56979,-5.07092 -81.13205,-18.63937 -123.41602,-68.75586 -35.92359,-42.57753 -70.26397,-63.45857 -104.35156,-64.2168 -3.54498,-0.0788 -6.94537,0.20773 -10.30859,0.57227 -0.69254,-3.31213 -1.47006,-6.63637 -2.64063,-9.98438 -11.25337,-32.18639 -41.72498,-58.39599 -93.32031,-79.4043 -60.73222,-24.72836 -83.39524,-50.54788 -103.53906,-96.123042 -5.57311,-12.60186 -19.3306,-19.448185 -32.74415,-16.294922 z m 6.55469,85.117184 c 24.37485,33.2218 58.54338,60.15045 108.13281,80.3418 43.39502,17.66967 57.34504,35.22524 60.85547,45.26563 3.51049,10.04052 0.48796,19.73445 -8.01757,31.4414 -9.02573,12.79663 -6.09929,30.46995 6.56946,39.67431 12.66874,9.20436 30.38138,6.52618 39.76257,-6.0122 8.50588,-11.70713 16.78969,-17.57439 27.42187,-17.33789 10.63219,0.2365 31.63769,8.08003 61.85352,43.89258 34.52647,40.92203 70.6973,65.09174 109.82422,78.0039 -24.06437,33.44678 -39.11894,74.26379 -42.99805,127.66407 -3.3949,46.73354 -15.77902,65.42422 -24.24024,71.86328 -8.4599,6.43807 -18.61025,6.55985 -32.37109,2.08984 -10e-4,-4.8e-4 -0.002,-10e-4 -0.004,-0.002 -6.5e-4,-2.1e-4 -10e-4,2.1e-4 -0.002,0 -14.96608,-4.65078 -30.89063,3.59234 -35.73402,18.4972 -4.8434,14.90485 3.19364,30.93438 18.0348,35.9696 6.3e-4,2e-4 10e-4,-2.1e-4 0.002,0 13.75845,4.47183 21.89832,10.53712 24.95898,20.72461 3.0608,10.18795 2.09195,32.59015 -22.62891,72.39062 -28.24878,45.48078 -40.06091,87.34994 -40.25195,128.55078 -39.24441,-12.54747 -82.7148,-14.25065 -134.69531,-1.43945 -45.49492,11.21265 -67.10002,5.21138 -75.8418,-0.84766 -8.74177,-6.05904 -11.99408,-15.67818 -11.99414,-30.14844 -0.21894,-15.65843 -12.97481,-28.23717 -28.63476,-28.23717 -15.65996,0 -28.41583,12.57874 -28.63477,28.23717 -6e-5,14.47031 -3.25242,24.08943 -11.99414,30.14844 -8.74173,6.05902 -30.34687,12.06031 -75.8418,0.84766 -51.98575,-12.81237 -95.4556,-11.10732 -134.70117,1.44336 -0.19055,-41.2027 -12.00218,-83.07206 -40.25195,-128.55469 -24.72249,-39.80297 -25.69035,-62.20393 -22.62891,-72.39062 3.06145,-10.1867 11.2031,-16.25322 24.96484,-20.72461 14.82891,-5.04368 22.85457,-21.06512 18.0144,-35.96169 -4.84017,-14.89657 -20.7502,-23.14087 -35.71166,-18.50511 -13.76359,4.47195 -23.91755,4.35203 -32.38086,-2.08789 -8.46331,-6.43993 -20.84734,-25.13049 -24.24219,-71.86328 -3.87889,-53.39894 -18.92995,-94.21666 -42.99218,-127.66407 39.12485,-12.91246 75.29273,-37.08275 109.81835,-78.0039 30.21549,-35.81212 51.22219,-43.65603 61.85743,-43.89258 10.63523,-0.23655 18.92081,5.63197 27.42578,17.33789 9.38119,12.53838 27.09383,15.21656 39.76257,6.0122 12.66875,-9.20436 15.59519,-26.87768 6.56946,-39.67431 -8.50554,-11.70695 -11.52806,-21.40088 -8.01758,-31.4414 3.51048,-10.04052 17.45905,-27.59571 60.85547,-45.26563 49.58931,-20.19131 83.75475,-47.12078 108.12695,-80.3418 z"
           id="path3"
           sodipodi:nodetypes="cccscsccccscscccsscssccsscsscsccscscccscscscsccsssscsscsscsscscssccscscscccscscsccs" />
        <path
           style="color:#000000;display:inline;fill:#009dd4;stroke-linecap:square;stroke-linejoin:round;-inkscape-stroke:none;paint-order:stroke fill markers"
           d="m 410.23894,201.94282 c -94.99184,38.67826 -88.84107,87.52764 -65.20625,120.05842 -23.6351,-32.53049 -68.19549,-53.47081 -134.33501,24.91935 -45.73499,54.20694 -87.75742,73.18945 -142.379404,78.77718 40.905554,36.62687 63.741404,76.6959 68.879694,147.43236 7.4311,102.29498 55.79015,111.53449 94.03221,99.10921 -38.24206,12.42542 -71.92914,48.33147 -17.81337,135.45737 37.42054,60.24772 42.4913,106.08494 30.9268,159.75983 47.47454,-27.58487 92.63782,-36.92642 161.50022,-19.95464 99.58466,24.54357 123.32256,-18.58806 123.32272,-58.7982 1.5e-4,40.21014 23.73822,83.34177 123.32287,58.7982 68.85464,-16.97003 114.02335,-7.6314 161.49217,19.94677 -11.56246,-53.67197 -6.49199,-99.50716 30.92695,-159.75196 54.11225,-87.12051 20.43352,-123.02961 -17.80549,-135.45737 38.24195,12.42528 86.59293,3.18577 94.02403,-99.10921 5.13845,-70.73646 27.98234,-110.80549 68.88788,-147.43236 C 935.39312,420.11004 893.36263,401.12753 847.6275,346.92059 781.48801,268.53043 736.93567,289.47089 713.30056,322.00124 736.93538,289.47046 743.08615,240.62108 648.09431,201.94282 582.4076,175.19713 551.36013,141.09701 529.1626,90.875372 506.96507,141.09701 475.92563,175.19713 410.23894,201.94282 Z"
           id="path4" />
        <path
           id="path115"
           style="font-variation-settings:'wght' 700;display:inline;fill:#f9f9f9;fill-opacity:1;stroke:none;stroke-width:16.0345;stroke-linecap:square;stroke-linejoin:bevel;stroke-dasharray:none;stroke-opacity:1;paint-order:stroke fill markers"
           d="m 529.15912,127.19248 c -26.62922,47.64985 -49.99614,69.55239 -111.68856,94.67188 -89.15398,36.30122 -69.92833,100.74808 -47.75029,131.32645 -22.22979,-30.54134 -77.58523,-68.73405 -139.65768,4.836 -42.95393,50.91069 -71.00773,66.36881 -124.55449,76.96995 37.08895,40.05052 50.69815,69.04934 55.5241,135.48448 6.97923,96.0749 74.31055,97.63403 110.22724,85.96413 -35.91669,11.67019 -89.46825,52.51107 -38.64314,134.33947 35.14528,56.58398 41.17557,88.04716 34.71104,142.24899 49.55125,-22.8974 81.34022,-26.88489 146.01535,-10.94514 93.52921,23.05119 115.82372,-40.50066 115.82386,-78.26553 1.5e-4,37.76487 22.2948,101.31672 115.824,78.26553 64.67499,-15.93975 96.45653,-11.95226 146.00792,10.94514 -6.46452,-54.20183 -0.43424,-85.66501 34.71104,-142.24899 50.82191,-81.82344 -2.71916,-122.66651 -38.6357,-134.33947 35.91654,11.6699 103.24043,10.11077 110.21966,-85.96413 C 902.11941,504.0461 915.7362,475.04728 952.825,434.99676 899.27839,424.39548 871.21715,408.9375 828.26308,358.02681 766.1453,284.40312 710.75793,322.70617 688.56021,353.25859 710.75778,322.70603 730.07847,258.1908 640.86269,221.86436 579.17027,196.74487 555.79576,174.84233 529.16655,127.19248 V 572.6507 h -0.007 v -0.008 z" />
        <circle
           style="font-variation-settings:'wght' 700;fill:#0074d4;fill-opacity:1;stroke:none;stroke-width:34.7265;stroke-linecap:round;stroke-linejoin:miter;stroke-dasharray:none;stroke-opacity:1;paint-order:stroke fill markers"
           id="circle124"
           cx="-586.54871"
           cy="-526.495"
           r="209.48676"
           transform="matrix(-0.00459233,-0.99998946,-0.99998946,0.00459233,0,0)" />
        <path
           d="m 370.26561,494.45356 q 1.50633,-2.604 3.58933,-3.89418 2.08301,-1.29018 4.48739,-1.236 2.3915,0.0764 4.8397,1.49265 1.82503,1.05571 2.99434,2.47472 1.15644,1.44127 1.60676,3.12755 0.43745,1.70855 0.10551,3.5661 -0.32255,1.89269 -1.44264,3.82899 -0.59223,1.0238 -1.46791,1.97274 -0.86629,0.98407 -1.82291,1.55945 -0.69434,0.43006 -1.34785,0.37876 -0.65352,-0.0513 -1.13618,-0.44931 -0.49553,-0.37576 -0.73815,-0.93197 -0.24263,-0.5562 -0.11518,-1.13597 0.1497,-0.56688 0.77377,-0.97818 0.69783,-0.48745 1.23986,-1.06502 0.55142,-0.54244 0.9634,-1.25464 0.79823,-1.37989 0.80481,-2.62365 0.016,-1.20863 -0.71521,-2.25537 -0.73117,-1.04674 -2.20009,-1.89647 -1.46892,-0.84972 -2.76308,-0.97457 -1.2719,-0.11197 -2.33392,0.49155 -1.05263,0.63865 -1.85085,2.01855 -0.33474,0.57866 -0.58744,1.3236 -0.23044,0.75782 -0.29222,1.5835 -0.0969,0.83506 -0.52656,1.26971 -0.44253,0.4569 -1.02339,0.53675 -0.59373,0.1021 -1.17938,-0.11786 -0.5634,-0.20709 -0.93367,-0.74803 -0.38315,-0.51868 -0.36,-1.27759 -0.0168,-1.04934 0.38563,-2.36117 0.38952,-1.28957 1.04613,-2.42464 z m -4.89683,9.87217 q 0.50658,-1.09715 1.33629,-1.42207 0.84227,-0.2908 1.91608,0.205 l 12.02205,5.55079 q 1.07381,0.49579 1.37538,1.31472 0.31414,0.85305 -0.19244,1.95021 l -3.65381,7.91354 q -0.38802,0.84037 -1.00221,1.06655 -0.6142,0.22618 -1.40789,-0.14028 -0.81703,-0.37723 -1.06655,-1.00221 -0.22618,-0.61419 0.16183,-1.45457 l 2.79156,-6.04604 -3.12806,-1.44428 -2.55444,5.53248 q -0.37724,0.81703 -0.99144,1.04321 -0.62497,0.24952 -1.442,-0.12772 -0.81704,-0.37723 -1.03244,-1.01477 -0.22618,-0.6142 0.15106,-1.43123 l 2.55444,-5.53248 -3.38485,-1.56284 -2.79156,6.04604 q -0.38801,0.84038 -1.02555,1.05578 -0.6142,0.22618 -1.40789,-0.14028 -0.81703,-0.37724 -1.04321,-0.99144 -0.22618,-0.61419 0.16184,-1.45457 z m -6.50265,14.2942 q 0.37665,-1.06678 1.16397,-1.44322 0.81157,-0.36788 1.87836,0.009 l 12.80142,4.51975 q 1.09104,0.3852 1.46748,1.17253 0.36788,0.81157 -0.009,1.87836 l -2.10579,5.9643 q -1.02722,2.90941 -3.01409,3.9803 -1.97118,1.10369 -4.49267,0.21344 -1.62443,-0.57353 -2.57988,-1.72889 -0.93977,-1.12256 -1.11502,-2.71141 -0.15957,-1.55604 0.5338,-3.5199 l 0.36794,0.34805 -0.41089,1.16376 q -0.36809,1.04254 -1.15972,1.66287 -0.76738,0.62889 -1.974,0.80275 l -2.61007,0.44185 q -0.84007,0.13968 -1.51037,-0.12425 -0.64606,-0.25537 -0.90271,-0.9186 -0.24097,-0.63043 0.0929,-1.57599 0.33384,-0.94556 0.93577,-1.41472 0.59336,-0.44492 1.58034,-0.61454 l 4.82791,-0.77676 q 0.63611,-0.10262 0.99271,-0.4948 0.37229,-0.35937 0.57774,-0.94125 l 0.4708,-1.33348 -4.33987,-1.53226 q -1.06679,-0.37665 -1.47604,-1.14829 -0.385,-0.76308 0.009,-1.87836 z m 8.95901,5.67172 -1.04434,2.95791 q -0.45368,1.28499 -0.18422,2.14362 0.26947,0.85862 1.33625,1.23527 1.0183,0.35952 1.76713,-0.13958 0.77307,-0.49054 1.22676,-1.77553 l 1.04434,-2.9579 z m -14.45292,11.74554 q 0.28185,-1.17513 1.03183,-1.65628 0.769,-0.45014 1.91913,-0.17429 l 12.87644,3.08834 q 1.15013,0.27585 1.60628,1.01984 0.47515,0.77499 0.1933,1.95012 l -1.17537,4.90055 q -1.10341,4.60052 -4.00334,6.5491 -2.90594,1.97358 -7.10641,0.96612 -2.10023,-0.50373 -3.5945,-1.54959 -1.46927,-1.03987 -2.32556,-2.54086 -0.83128,-1.49499 -0.99958,-3.43911 -0.14929,-1.91313 0.40241,-4.21339 z m 3.1977,3.09377 -0.57569,2.40027 q -0.31783,1.32515 -0.22067,2.35321 0.0912,1.05307 0.56631,1.82806 0.46916,0.79999 1.3473,1.3279 0.87215,0.55292 2.1723,0.86475 2.60029,0.62367 4.13126,-0.35764 1.55598,-0.9753 2.17964,-3.57559 l 0.57569,-2.40027 z m -7.38442,14.56784 q 0.10176,-0.79055 0.52772,-1.28012 0.45146,-0.48629 1.10541,-0.53173 0.67945,-0.0421 1.44954,0.41991 l 12.85139,8.10943 q 0.93547,0.58705 1.30914,1.30918 0.37039,0.74763 0.25878,1.61468 -0.11161,0.86705 -0.65271,1.4455 -0.54438,0.60395 -1.60131,0.96045 l -14.48619,4.59031 q -0.86858,0.30298 -1.5152,0.0901 -0.64991,-0.18736 -0.93799,-0.76885 -0.29137,-0.55599 -0.19288,-1.32103 0.13131,-1.02006 0.66255,-1.52201 0.52797,-0.47644 1.60383,-0.77865 l 3.41596,-0.96017 -1.53037,1.61768 1.3525,-10.50661 1.0675,1.97803 -3.06142,-1.79399 q -0.96097,-0.59034 -1.35763,-1.13396 -0.39665,-0.54361 -0.26862,-1.53817 z m 12.38275,8.93051 -6.68311,-3.86749 1.31599,-0.55647 -0.95528,7.42093 -1.13216,-0.87161 7.44799,-2.07435 z m -14.77,16.23688 q 0.0304,-1.02802 0.21812,-2.15429 0.16122,-1.10132 0.47361,-2.09527 0.31238,-0.99396 0.72148,-1.77926 0.35465,-0.68403 0.90273,-0.95076 0.57379,-0.26596 1.18832,-0.1706 0.61453,0.0954 1.06649,0.46887 0.47766,0.37427 0.61436,0.96995 0.16241,0.59644 -0.19377,1.33187 -0.49153,0.96292 -0.78506,2.18895 -0.29353,1.22602 -0.32549,2.30544 -0.0502,1.69625 0.36691,2.3774 0.44206,0.70761 1.11028,0.7274 0.59112,0.0175 0.96538,-0.46016 0.37351,-0.45196 0.66628,-1.65228 l 0.73154,-2.98795 q 0.58707,-2.45204 1.90786,-3.62193 1.3208,-1.16988 3.35115,-1.10977 1.33643,0.0396 2.39988,0.61124 1.08839,0.59814 1.82973,1.62329 0.74058,1.05085 1.1107,2.45086 0.39506,1.42647 0.34408,3.14842 -0.0396,1.33643 -0.38831,2.68943 -0.3238,1.37947 -0.94459,2.36429 -0.32591,0.58198 -0.87323,0.82301 -0.54732,0.24103 -1.13691,0.17212 -0.5639,-0.0681 -0.99015,-0.44088 -0.42702,-0.34705 -0.56373,-0.94273 -0.11176,-0.56921 0.24594,-1.35604 0.35617,-0.73543 0.53853,-1.68179 0.2073,-0.91989 0.23317,-1.79372 0.0282,-0.95092 -0.18336,-1.62598 -0.18583,-0.67431 -0.58638,-1.04629 -0.40132,-0.34628 -0.94103,-0.36226 -0.53972,-0.016 -0.93816,0.40951 -0.37351,0.45196 -0.66628,1.65228 l -0.73078,2.96225 q -0.61353,2.47699 -1.88368,3.67409 -1.27016,1.19711 -3.24911,1.13852 -1.33643,-0.0396 -2.39988,-0.61125 -1.06344,-0.57167 -1.80479,-1.59682 -0.71564,-1.02439 -1.085,-2.4501 -0.36936,-1.42571 -0.31685,-3.19906 z m -2.74353,12.35254 q -0.57965,-0.39144 -0.64895,-0.90357 -0.0941,-0.48555 0.17603,-0.85514 0.24442,-0.36871 0.73086,-0.43711 0.46164,-0.0418 1.04308,0.40102 0.76757,0.61644 1.51993,0.79605 0.75236,0.1796 1.34337,0.15901 l -1.25374,0.19805 q -0.0412,-1.18203 0.60184,-1.92481 0.66873,-0.74367 1.82506,-0.78396 1.10494,-0.0385 1.79633,0.60632 0.71797,0.66962 0.75827,1.82596 0.0421,1.20772 -0.75692,1.90448 -0.77331,0.69586 -2.2123,0.746 -0.7195,0.0251 -1.47006,-0.10314 -0.74967,-0.10251 -1.58628,-0.485 -0.86141,-0.3559 -1.86652,-1.14416 z m 3.88271,14.1085 q -0.16306,-1.11951 0.35864,-1.81909 0.54714,-0.70329 1.66665,-0.86635 l 13.66312,-1.99009 q 1.1704,-0.17048 1.84454,0.35493 0.69959,0.5217 0.86265,1.64121 0.16676,1.14495 -0.35864,1.81909 -0.49626,0.69588 -1.66666,0.86636 l -5.54666,0.80789 0.007,0.0509 7.71938,5.18956 q 0.57928,0.40931 0.93699,0.90285 0.38685,0.51529 0.48691,1.20226 0.15565,1.06862 -0.3374,1.60813 -0.4639,0.56125 -1.20917,0.61784 -0.71612,0.0783 -1.4083,-0.39249 l -7.43579,-5.20488 1.90825,-0.27795 -6.36095,7.52624 q -0.64151,0.769 -1.43025,0.88388 -0.7633,0.11118 -1.35,-0.34901 -0.58299,-0.43475 -0.73122,-1.45249 -0.126,-0.86508 0.12694,-1.44756 0.28208,-0.56076 0.88011,-1.27146 l 6.04181,-7.21992 -0.007,-0.0509 -5.95376,0.86719 q -1.11951,0.16306 -1.84084,-0.32949 -0.69588,-0.49626 -0.86635,-1.66666 z m 3.04356,18.07529 q -0.27409,-1.09762 0.17511,-1.84582 0.47415,-0.75443 1.57177,-1.02852 l 13.17144,-3.28902 q 1.12257,-0.28032 1.87077,0.16888 0.75443,0.47415 1.02852,1.57177 l 1.53239,6.1367 q 0.7475,2.99351 -0.31941,4.98251 -1.03573,2.00773 -3.63011,2.65557 -1.67138,0.41735 -3.10555,-0.0196 -1.403,-0.4182 -2.42537,-1.64699 -0.9912,-1.21006 -1.49577,-3.23068 l 0.49886,0.0874 0.299,1.1974 q 0.26786,1.07268 -0.0504,2.02671 -0.29335,0.9478 -1.20404,1.75823 l -1.93367,1.80793 q -0.62377,0.57978 -1.32848,0.72925 -0.67977,0.14325 -1.25961,-0.26849 -0.54866,-0.39303 -0.7916,-1.36592 -0.24294,-0.97289 4.6e-4,-1.6962 0.24963,-0.69837 0.97944,-1.38414 l 3.59911,-3.31035 q 0.47406,-0.4364 0.55527,-0.9602 0.11239,-0.50509 -0.0371,-1.10379 l -0.34261,-1.37203 -4.46532,1.11503 q -1.09762,0.27408 -1.86454,-0.14394 -0.74197,-0.42426 -1.02851,-1.57177 z m 10.60134,-0.20912 0.75997,3.0434 q 0.33014,1.32214 1.02843,1.88981 0.69828,0.56767 1.7959,0.29359 1.04773,-0.26163 1.39717,-1.09093 0.3744,-0.83553 0.0442,-2.15766 l -0.75997,-3.0434 z m -5.52811,17.74991 q -0.39967,-1.14045 -0.0299,-1.95116 0.40254,-0.79495 1.51873,-1.18612 l 12.49647,-4.37937 q 1.11619,-0.39116 1.90264,-0.0129 0.81922,0.39403 1.21889,1.53449 l 2.88273,8.22583 q 0.30613,0.87354 0.0224,1.46338 -0.2837,0.58983 -1.10871,0.87896 -0.84928,0.29762 -1.46338,0.0224 -0.58983,-0.2837 -0.89596,-1.15724 l -2.20244,-6.28464 -3.25151,1.13949 2.01536,5.7508 q 0.29762,0.84928 0.0139,1.43911 -0.2752,0.6141 -1.12448,0.91173 -0.84927,0.29763 -1.44761,-0.0103 -0.58984,-0.28371 -0.88746,-1.13298 l -2.01536,-5.75081 -3.51843,1.23303 2.20244,6.28463 q 0.30613,0.87354 -0.002,1.47188 -0.2837,0.58984 -1.10871,0.87896 -0.84928,0.29763 -1.43911,0.0139 -0.58984,-0.2837 -0.89597,-1.15724 z m 4.55139,13.14104 q -0.33073,-0.72521 -0.22726,-1.36585 0.12687,-0.6513 0.65837,-1.03499 0.5549,-0.39436 1.45288,-0.40825 l 15.1957,0.10665 q 1.10441,0.005 1.80289,0.42121 0.70915,0.4396 1.07188,1.235 0.36274,0.7954 0.20837,1.57228 -0.1437,0.80029 -0.85336,1.66085 l -9.88266,11.54357 q -0.57791,0.71571 -1.2395,0.87612 -0.65092,0.18382 -1.20248,-0.1581 -0.54089,-0.31851 -0.86095,-1.02033 -0.42675,-0.93576 -0.24037,-1.64247 0.19704,-0.68331 0.95143,-1.50776 l 2.39493,-2.61821 -0.44628,2.18169 -4.39553,-9.63833 1.95057,1.11687 -3.54715,0.0917 q -1.1278,0.006 -1.7516,-0.24679 -0.62379,-0.25245 -1.03988,-1.16482 z m 15.23093,1.05141 -7.71771,0.24154 0.82418,-1.16713 3.10462,6.80765 -1.42164,-0.14293 5.23189,-5.69235 z m -4.80925,19.87255 q -0.56367,-0.9809 -0.33609,-1.82339 0.24987,-0.85531 1.23078,-1.41898 l 10.5001,-6.03384 -2.01128,-3.50004 q -0.474,-0.82485 -0.30664,-1.51412 0.20246,-0.67978 1.00502,-1.14097 0.82485,-0.47399 1.49182,-0.29383 0.67979,0.20246 1.15378,1.02731 l 6.37974,11.10203 q 0.47399,0.82485 0.29382,1.49182 -0.16735,0.68927 -0.9922,1.16326 -0.80256,0.46119 -1.50464,0.27154 -0.66697,-0.18017 -1.14097,-1.00502 l -2.01128,-3.50003 -10.5001,6.03384 q -0.9809,0.56367 -1.83288,0.3712 -0.82969,-0.20529 -1.41898,-1.23078 z m 6.48655,10.45499 q -0.62851,-0.94067 -0.45824,-1.79659 0.19164,-0.8702 1.15369,-1.513 l 11.43771,-7.64217 q 0.98343,-0.65708 1.83935,-0.48682 0.85592,0.17027 1.48443,1.11094 0.6428,0.96205 0.45825,1.79659 -0.17027,0.85592 -1.1537,1.51301 l -11.4377,7.64216 q -0.96205,0.6428 -1.82507,0.5082 -0.84163,-0.14889 -1.49872,-1.13232 z m 4.60608,6.61691 q -0.68428,-0.90092 -0.58165,-1.78605 0.13864,-0.8802 1.08052,-1.59558 l 10.72919,-8.14906 q 0.94187,-0.71538 1.80653,-0.5972 0.90068,0.12309 1.6316,1.08544 l 5.1787,6.81836 q 0.55986,0.73712 0.47123,1.38561 -0.0886,0.64849 -0.7848,1.17725 -0.71664,0.54431 -1.38561,0.47123 -0.64849,-0.0886 -1.20835,-0.82575 l -3.81015,-5.01651 -2.90753,2.20833 3.46802,4.56605 q 0.54431,0.71664 0.45568,1.36513 -0.0731,0.66897 -0.76925,1.19772 -0.71665,0.54431 -1.38069,0.4352 -0.64849,-0.0886 -1.19279,-0.80527 l -3.46802,-4.56605 -3.97226,3.01702 q -1.94517,1.47741 -3.36037,-0.38587 z m 6.6564,12.91129 q -0.69728,0.0548 -1.07051,-0.30264 -0.37606,-0.32122 -0.39497,-0.77862 -0.0385,-0.44069 0.29948,-0.79721 0.3351,-0.32027 1.0658,-0.33602 0.98445,0.004 1.6849,-0.32402 0.70044,-0.32814 1.14996,-0.7124 l -0.85743,0.9359 q -0.76852,-0.89905 -0.72815,-1.88067 0.0599,-0.99832 0.93941,-1.75013 0.84041,-0.71839 1.78294,-0.64461 0.97878,0.0766 1.73059,0.95611 0.78522,0.91859 0.59417,1.96137 -0.1715,1.02606 -1.26599,1.96164 -0.54724,0.46779 -1.21427,0.83502 -0.65032,0.38678 -1.54305,0.60868 -0.89557,0.25816 -2.17288,0.2676 z m 14.93845,11.53709 q -0.82119,-0.77817 -0.84465,-1.65055 -0.006,-0.89103 0.77239,-1.71222 l 8.32996,-8.79041 -2.93014,-2.77665 q -0.69054,-0.65437 -0.72778,-1.36269 -8.9e-4,-0.70929 0.63579,-1.38117 0.65437,-0.69055 1.345,-0.70912 0.7093,-8.9e-4 1.39984,0.65348 l 9.29432,8.80747 q 0.69054,0.65437 0.70912,1.345 0.0372,0.70831 -0.61713,1.39885 -0.63669,0.67188 -1.36367,0.69144 -0.69063,0.0186 -1.38117,-0.6358 l -2.93014,-2.77665 -8.32995,8.79041 q -0.77817,0.82119 -1.64957,0.881 -0.85371,0.0412 -1.71222,-0.77239 z m 9.41347,8.07485 q -0.94741,-0.75019 -1.06829,-1.63301 -0.0848,-0.88702 0.64947,-1.81427 l 8.22009,-10.38128 q 0.73422,-0.92726 1.60108,-1.02797 0.90298,-0.10491 1.8504,0.64527 l 6.8335,5.4109 q 0.72568,0.5746 0.80121,1.22475 0.0755,0.65014 -0.46714,1.33551 -0.55865,0.70552 -1.22476,0.80122 -0.65014,0.0755 -1.37582,-0.49908 l -5.22088,-4.13398 -2.13882,2.70114 4.7774,3.78284 q 0.70553,0.55865 0.78106,1.20879 0.0957,0.66611 -0.46295,1.37163 -0.55865,0.70553 -1.22895,0.7651 -0.65014,0.0755 -1.35567,-0.48311 l -4.7774,-3.78284 -2.31439,2.92288 5.22087,4.13399 q 0.72568,0.57461 0.78526,1.24491 0.0755,0.65015 -0.46715,1.33551 -0.55865,0.70553 -1.20879,0.78106 -0.65015,0.0755 -1.37583,-0.49907 z m 12.36872,9.67483 q -0.94781,-0.6177 -1.12786,-1.47162 -0.16601,-0.87545 0.4517,-1.82326 l 7.4125,-11.37362 q 0.63175,-0.96935 1.48567,-1.1494 0.87545,-0.16601 1.82325,0.4517 l 5.29908,3.45355 q 2.58492,1.68466 3.15679,3.8681 0.60745,2.17594 -0.85259,4.4162 -0.9406,1.44324 -2.28877,2.09913 -1.31259,0.64838 -2.89793,0.44381 -1.54977,-0.21207 -3.29459,-1.34922 l 0.42503,-0.27542 1.03397,0.67386 q 0.92626,0.60367 1.3423,1.51931 0.43007,0.8941 0.31434,2.10768 l -0.18645,2.64063 q -0.0625,0.8493 -0.4771,1.43841 -0.40059,0.56757 -1.10564,0.66049 -0.66948,0.0854 -1.50958,-0.46209 -0.8401,-0.54752 -1.154,-1.24314 -0.29236,-0.68159 -0.22432,-1.68072 l 0.38426,-4.87488 q 0.0504,-0.64236 -0.24661,-1.08143 -0.26139,-0.44657 -0.77837,-0.7835 l -1.18475,-0.77213 -2.51295,3.85583 q -0.61771,0.9478 -1.46412,1.16343 -0.83238,0.19409 -1.82326,-0.4517 z m 7.62538,-7.36789 2.62799,1.71274 q 1.14167,0.74406 2.03964,0.68478 0.89796,-0.0593 1.51567,-1.00707 0.58963,-0.90472 0.2813,-1.75017 -0.29429,-0.86699 -1.43597,-1.61105 l -2.62799,-1.71273 z m 6.14402,16.09031 q -0.70885,-0.36448 -1.02444,-0.93152 -0.30383,-0.5899 -0.12423,-1.22034 0.19137,-0.65331 0.88773,-1.22043 l 11.99568,-9.3287 q 0.87013,-0.68015 1.67628,-0.78605 0.82903,-0.0941 1.60648,0.30561 0.77745,0.39976 1.13747,1.10528 0.38289,0.71729 0.35881,1.83246 l -0.60829,15.18391 q -0.0104,0.91983 -0.4304,1.45557 -0.39716,0.54749 -1.04195,0.62071 -0.62193,0.085 -1.30792,-0.26774 -0.91465,-0.4703 -1.20607,-1.14055 -0.26856,-0.6585 -0.18699,-1.77303 l 0.25842,-3.53891 1.001,1.9892 -9.42088,-4.84406 2.22313,-0.3314 -2.72797,2.26911 q -0.88189,0.70301 -1.52798,0.89121 -0.6461,0.18821 -1.53788,-0.27033 z m 12.60852,-8.60883 -5.90929,4.97009 -0.0759,-1.42679 6.65408,3.42141 -1.20461,0.76837 0.58145,-7.70956 z m 6.21777,17.88752 q -0.96302,-0.36105 -1.2941,-1.08929 -0.307,-0.71922 0.0541,-1.68223 L 461.8623,736.146 q 0.37008,-0.9871 1.11337,-1.28507 0.75231,-0.32206 1.76348,0.057 0.84264,0.31592 1.19778,0.83351 0.38824,0.50253 0.51771,1.40232 l 1.69203,11.23379 -0.84264,-0.31593 8.63632,-7.36147 q 0.71318,-0.58386 1.31203,-0.71631 0.63195,-0.1475 1.47459,0.16842 0.96302,0.36106 1.27003,1.08027 0.3401,0.70416 -0.03,1.69126 l -5.00964,13.36186 q -0.36106,0.96302 -1.06522,1.30312 -0.70417,0.34011 -1.69126,-0.03 -0.96302,-0.36105 -1.2941,-1.08929 -0.307,-0.71921 0.0541,-1.68223 l 3.10507,-8.28195 0.50558,0.18956 -6.40353,5.28787 q -0.53563,0.40329 -1.02013,0.52369 -0.46042,0.12944 -1.08638,-0.10525 -0.60189,-0.22566 -0.8878,-0.63491 -0.28592,-0.40925 -0.40032,-1.05625 l -1.36381,-8.22747 0.55374,0.2076 -3.1141,8.30603 q -0.36106,0.96301 -1.06522,1.30312 -0.70417,0.34011 -1.69126,-0.03 z m 21.67117,7.49474 q -1.09654,-0.27838 -1.54282,-1.02833 -0.43994,-0.77487 -0.16157,-1.87141 l 3.34048,-13.15849 q 0.2847,-1.12146 1.03465,-1.56774 0.77488,-0.43994 1.87142,-0.16157 l 6.13066,1.55636 q 2.99056,0.7592 4.2182,2.71556 1.25888,1.93776 0.5756,4.62927 -0.68328,2.69151 -2.72034,3.81908 -2.00582,1.10897 -4.99638,0.34977 l -3.86282,-0.98064 -1.00594,3.9625 q -0.27837,1.09654 -1.00973,1.57406 -0.72503,0.4526 -1.87141,0.16158 z m 4.77914,-9.21205 3.06533,0.77818 q 1.29591,0.32899 2.1329,-0.0421 0.84331,-0.39604 1.12801,-1.51751 0.29103,-1.14638 -0.26758,-1.8718 -0.55862,-0.72541 -1.85453,-1.0544 l -3.06533,-0.77818 z m 12.18265,13.06082 q -1.11327,-0.20131 -1.6107,-0.91835 -0.49286,-0.74234 -0.28698,-1.88091 l 2.44768,-13.53635 q 0.21046,-1.16387 0.9275,-1.66131 0.71704,-0.49743 1.83031,-0.29613 1.13857,0.20588 1.6107,0.91835 0.49744,0.71704 0.28698,1.88091 l -2.44768,13.53635 q -0.20588,1.13857 -0.9022,1.66588 -0.69174,0.50201 -1.85561,0.29156 z m 7.9858,1.06204 q -1.12378,-0.13048 -1.69112,-0.81758 -0.53883,-0.70968 -0.40835,-1.83345 l 1.54201,-13.28097 q 0.13345,-1.14932 0.81758,-1.69111 0.68414,-0.5418 1.80792,-0.41132 1.14931,0.13344 1.66557,0.81461 0.5418,0.68414 0.40835,1.83345 l -1.36409,11.74855 6.23184,0.72356 q 0.97054,0.11269 1.42203,0.6828 0.48001,0.54754 0.37029,1.49253 -0.10972,0.945 -0.70538,1.39353 -0.57011,0.4515 -1.54064,0.33881 z m 22.4034,1.69664 q -1.20821,0.0245 -1.86337,-0.57948 -0.62997,-0.63018 -0.65391,-1.81268 l -0.26802,-13.23892 q -0.0239,-1.18251 0.58052,-1.81196 0.62966,-0.65567 1.83787,-0.68013 l 5.0385,-0.10201 q 4.73002,-0.0958 7.34857,2.21721 2.64425,2.31244 2.73168,6.63116 0.0437,2.15936 -0.59031,3.86953 -0.63454,1.68446 -1.87023,2.89246 -1.2362,1.1823 -3.07459,1.83673 -1.8132,0.62821 -4.17821,0.67609 z m 2.18464,-3.87608 2.46783,-0.05 q 1.36246,-0.0276 2.33254,-0.38155 0.9958,-0.35448 1.62545,-1.01016 0.65536,-0.6562 0.94406,-1.63929 0.31441,-0.98362 0.28735,-2.32037 -0.0541,-2.67349 -1.39066,-3.90657 -1.33706,-1.25879 -4.01055,-1.20466 l -2.46784,0.05 z m 15.96206,3.46553 q -0.79053,0.10196 -1.37209,-0.18598 -0.58484,-0.31344 -0.79457,-0.93451 -0.21302,-0.64658 0.0387,-1.50864 l 4.58676,-14.48733 q 0.33074,-1.05373 0.93456,-1.59825 0.62931,-0.54782 1.49633,-0.65964 0.86703,-0.11183 1.56375,0.26496 0.72222,0.37349 1.335,1.30553 l 8.11258,12.8494 q 0.51325,0.76339 0.47126,1.44286 -0.0165,0.67617 -0.50595,1.10225 -0.46397,0.42279 -1.22899,0.52146 -1.02003,0.13156 -1.64024,-0.2551 -0.59472,-0.38994 -1.15979,-1.35405 l -1.79474,-3.06098 1.95279,1.0703 -10.50628,1.35507 1.64281,-1.53405 -0.95934,3.41619 q -0.32745,1.07923 -0.75276,1.60073 -0.42531,0.52151 -1.41983,0.64978 z m 5.49982,-14.24214 -2.04702,7.44521 -0.87189,-1.13194 7.42069,-0.9571 -0.55614,1.31612 -3.89464,-6.67887 z m 15.27612,11.14003 q -1.05007,0.25209 -1.73215,-0.16591 -0.68207,-0.41799 -0.94016,-1.49306 l -3.27105,-13.62585 q -0.26408,-1.10007 0.14791,-1.80715 0.40599,-0.73208 1.30604,-0.94815 0.80005,-0.19206 1.3221,-8e-5 0.52206,0.19198 1.24014,0.75999 l 10.30227,7.99801 -0.70005,0.16805 -2.1727,-9.05057 q -0.25208,-1.05006 0.14091,-1.72614 0.418,-0.68208 1.46806,-0.93416 1.05007,-0.25208 1.70714,0.17192 0.68208,0.41799 0.93416,1.46805 l 3.32507,13.85088 q 0.22807,0.95006 -0.13391,1.64513 -0.36799,0.67007 -1.21805,0.87414 -0.85005,0.20407 -1.4221,0.0241 -0.55306,-0.21099 -1.26515,-0.75399 l -10.30826,-8.02301 0.70004,-0.16806 2.1727,9.05057 q 0.25808,1.07507 -0.15991,1.75715 -0.39299,0.67607 -1.44305,0.92815 z m 25.98713,-7.67763 q -1.1227,0.44711 -1.9482,0.11165 -0.81112,-0.36887 -1.24873,-1.46768 l -4.89927,-12.30195 q -0.43761,-1.09881 -0.0926,-1.90042 0.35936,-0.83501 1.48206,-1.28213 l 5.82849,-2.32121 q 1.81544,-0.723 3.30026,-0.67779 1.49921,0.0118 2.55809,0.72482 1.05888,0.71301 1.5821,2.02681 0.58982,1.48101 0.14846,2.87452 -0.41748,1.38401 -1.72239,2.3465 l -0.15221,-0.38219 q 1.84355,-0.37442 3.20325,0.3295 1.38358,0.6944 2.0495,2.36651 0.88472,2.22152 -0.20201,4.14881 -1.07237,1.89389 -3.8194,2.98791 z m 0.6267,-3.98584 3.55921,-1.41746 q 1.21825,-0.48517 1.58691,-1.15783 0.38303,-0.70606 0.012,-1.63766 -0.37102,-0.93161 -1.12506,-1.15715 -0.73016,-0.23506 -1.94841,0.25011 l -3.5592,1.41746 z m -2.75881,-6.92731 3.12923,-1.24622 q 1.19437,-0.47566 1.57254,-1.12443 0.40206,-0.65829 0.0501,-1.54212 -0.35199,-0.88383 -1.087,-1.06159 -0.72065,-0.21117 -1.91501,0.26448 l -3.12923,1.24623 z m 18.73273,3.8342 q -1.0764,0.5493 -1.92945,0.29183 -0.84184,-0.29205 -1.37946,-1.34555 L 599.29732,735.264 q -0.53762,-1.0535 -0.26846,-1.88364 0.28037,-0.86474 1.35677,-1.41404 l 7.76383,-3.96201 q 0.82447,-0.42074 1.44708,-0.21888 0.62261,0.20187 1.01998,0.98054 0.40906,0.80158 0.21888,1.44709 -0.20187,0.62261 -1.02634,1.04336 l -5.93166,3.02701 1.5661,3.06889 5.42781,-2.7699 q 0.80158,-0.40905 1.42419,-0.20719 0.64551,0.19018 1.05457,0.99176 0.40905,0.80157 0.18428,1.43587 -0.20186,0.62261 -1.00344,1.03167 l -5.42781,2.7699 1.69467,3.32081 5.93165,-3.02702 q 0.82448,-0.42075 1.45878,-0.19598 0.62261,0.20187 1.01998,0.98054 0.40905,0.80158 0.20719,1.42419 -0.20187,0.62261 -1.02635,1.04335 z m 13.94427,-7.2206 q -0.9561,0.60479 -1.80749,0.41316 -0.86514,-0.21336 -1.46992,-1.16947 l -7.25738,-11.47323 q -0.61852,-0.97783 -0.42689,-1.82922 0.21336,-0.86514 1.16946,-1.46992 l 5.34548,-3.38128 q 2.60756,-1.6494 4.83094,-1.26078 2.23136,0.35314 3.66085,2.61302 0.92091,1.45589 0.95628,2.95472 0.0434,1.46335 -0.8024,2.81978 -0.83775,1.32094 -2.59785,2.43429 l -0.0736,-0.50109 1.04302,-0.65977 q 0.93438,-0.59103 1.9401,-0.5883 0.99198,-0.019 2.04732,0.59126 l 2.32353,1.26842 q 0.74628,0.41023 1.10942,1.03241 0.34938,0.60044 0.14047,1.28022 -0.20093,0.64431 -1.04838,1.18036 -0.84746,0.53606 -1.61062,0.53201 -0.74143,-0.0178 -1.62162,-0.49544 l -4.27282,-2.37805 q -0.56314,-0.31311 -1.08597,-0.22579 -0.51483,0.0518 -1.03634,0.38172 l -1.19513,0.75598 2.46036,3.8896 q 0.60478,0.9561 0.44862,1.81548 -0.1699,0.83764 -1.16946,1.46991 z m -3.52638,-9.99984 2.65102,-1.6769 q 1.15167,-0.72848 1.47145,-1.56966 0.31978,-0.84119 -0.285,-1.79729 -0.57729,-0.91264 -1.47437,-0.9841 -0.91082,-0.0932 -2.06248,0.63529 l -2.65102,1.6769 z m 17.18741,1.10923 q -0.62641,0.49289 -1.27334,0.54388 -0.66283,0.0308 -1.16135,-0.39488 -0.51442,-0.44587 -0.74031,-1.31508 l -3.49065,-14.78973 q -0.25636,-1.07425 -0.0172,-1.85136 0.25939,-0.793 0.94642,-1.33359 0.68703,-0.54058 1.47838,-0.57434 0.81157,-0.0497 1.81557,0.4363 l 13.55357,6.8718 q 0.83209,0.39223 1.14444,0.9971 0.33256,0.58897 0.13081,1.20575 -0.18154,0.60088 -0.78774,1.07787 -0.80827,0.63597 -1.539,0.62204 -0.71053,-0.0298 -1.69002,-0.56781 l -3.11039,-1.70767 2.22533,-0.0824 -8.32514,6.55057 0.6238,-2.1594 0.92807,3.42482 q 0.27226,1.09446 0.17452,1.76027 -0.0977,0.6658 -0.88579,1.28588 z m -2.58103,-15.04742 2.06017,7.44158 -1.32896,-0.52473 5.88014,-4.62674 0.19739,1.4151 -6.76833,-3.73701 z m 18.92478,1.61113 q -0.8116,0.78817 -1.68419,0.77539 -0.89051,-0.0312 -1.67868,-0.84282 l -9.61922,-9.90514 q -0.82399,-0.84848 -0.7933,-1.70264 0.0128,-0.87259 0.82437,-1.66076 0.83004,-0.80608 1.68419,-0.77539 0.85469,-0.006 1.67868,0.84282 l 3.90501,4.02108 0.0369,-0.0358 -0.31844,-9.29618 q -0.008,-0.70926 0.18252,-1.28833 0.19084,-0.61542 0.68886,-1.09907 0.77471,-0.75234 1.50081,-0.66898 0.72663,0.047 1.20921,0.61775 0.48312,0.53438 0.50723,1.37115 l 0.13984,9.07537 -1.34347,-1.3834 9.82612,0.74394 q 0.99905,0.0692 1.55435,0.64099 0.53739,0.55336 0.50829,1.29843 -0.0107,0.72717 -0.74846,1.44368 -0.62714,0.60904 -1.24736,0.74542 -0.61969,0.10003 -1.54602,0.0319 l -9.39088,-0.66483 -0.0369,0.0358 4.19161,4.3162 q 0.78817,0.8116 0.81175,1.68473 0.006,0.85468 -0.84282,1.67867 z m 12.88783,-13.03898 q -0.7239,0.8694 -1.59298,0.94877 -0.88883,0.0629 -1.77799,-0.67745 l -10.57114,-8.80197 q -0.90892,-0.75681 -0.98829,-1.62588 -0.0794,-0.86908 0.64454,-1.73848 0.74035,-0.88916 1.59297,-0.94877 0.86908,-0.0794 1.778,0.67744 l 3.69496,3.07658 4.78762,-5.74991 -3.69496,-3.07658 q -0.90892,-0.7568 -1.00474,-1.60612 -0.0794,-0.86907 0.66099,-1.75823 0.7239,-0.86941 1.57652,-0.92901 0.86908,-0.0794 1.778,0.67744 l 10.57114,8.80198 q 0.88916,0.74035 0.98829,1.62588 0.0958,0.84931 -0.62809,1.71872 -0.74035,0.88916 -1.60943,0.96852 -0.87238,0.0431 -1.76154,-0.6972 l -3.89255,-3.2411 -4.78762,5.74991 3.89255,3.2411 q 0.88916,0.74036 1.00474,1.60612 0.0958,0.84932 -0.66099,1.75824 z m 12.36521,-16.0209 q -0.6371,0.93488 -1.50903,1.11855 -0.87869,0.14794 -1.81356,-0.48916 l -11.04855,-7.52938 q -0.95612,-0.65158 -1.11855,-1.50903 -0.16242,-0.85744 0.47468,-1.79232 0.65158,-0.95612 1.49454,-1.0973 0.85745,-0.16242 1.81357,0.48916 l 9.77372,6.66061 3.53301,-5.18432 q 0.55023,-0.80739 1.26476,-0.94275 0.70777,-0.17108 1.49392,0.36467 0.78614,0.53574 0.90702,1.27153 0.13535,0.71453 -0.41487,1.52192 z m 7.57388,-10.93919 q -0.38559,0.69759 -0.96184,0.99601 -0.59876,0.28598 -1.22353,0.0875 -0.64727,-0.21088 -1.19322,-0.92396 l -8.96438,-12.27032 q -0.65372,-0.89016 -0.73537,-1.69913 -0.0692,-0.83148 0.3537,-1.59658 0.42291,-0.7651 1.13893,-1.10378 0.72846,-0.36118 1.8424,-0.30363 l 15.1588,1.06384 q 0.91911,0.038 1.442,0.47391 0.53532,0.41341 0.58915,1.06012 0.0663,0.6242 -0.30689,1.29929 -0.49754,0.90011 -1.17624,1.17128 -0.66627,0.24867 -1.77784,0.13368 l -3.52956,-0.36454 2.01835,-0.94084 -5.1247,9.27122 -0.26451,-2.23208 2.18619,2.79486 q 0.67623,0.9026 0.84495,1.55405 0.16872,0.65145 -0.31639,1.52907 z m -8.22642,-12.86129 4.79044,6.05584 -1.42842,0.033 3.61963,-6.54836 0.73186,1.22713 -7.68864,-0.81264 z m 25.23435,-17.69736 q 0.89012,-0.12996 1.41005,0.2264 0.54367,0.36625 0.74894,1.00918 0.21518,0.61921 0.0664,1.30938 -0.13888,0.66644 -0.63368,1.18431 -0.4948,0.51787 -1.32755,0.6439 l -3.55654,0.57718 q -0.53604,0.0827 -0.90415,0.43058 -0.36811,0.34786 -0.65534,1.03596 l 0.14684,-3.75582 q 0.44571,-1.06775 1.15613,-1.63492 0.68669,-0.57708 1.78251,-0.73261 z m -4.84198,6.39316 q -1.05981,2.53885 -2.92983,4.01507 -1.89375,1.46632 -4.28513,1.72187 -2.38147,0.23182 -4.96777,-0.84779 -1.94567,-0.81219 -3.28779,-2.069 -1.33223,-1.28053 -2.00563,-2.87116 -0.6635,-1.61435 -0.60297,-3.42799 0.0368,-1.82354 0.82917,-3.72175 1.05981,-2.53885 2.91993,-3.99134 1.87002,-1.47622 4.2614,-1.73177 2.36764,-0.26546 4.97768,0.82406 1.94566,0.81219 3.27788,2.09272 1.34213,1.25681 2.02936,2.88107 0.6734,1.59062 0.6366,3.41416 -0.0605,1.81364 -0.8529,3.71185 z m -3.65405,-1.52533 q 0.52495,-1.25756 0.29824,-2.3831 -0.22671,-1.12554 -1.14382,-2.06561 -0.9171,-0.94008 -2.48312,-1.59379 -2.34903,-0.98057 -4.08985,-0.48132 -1.74083,0.49926 -2.5233,2.37373 -0.51505,1.23384 -0.29824,2.3831 0.20299,1.11564 1.12009,2.05571 0.89337,0.93017 2.48312,1.59379 2.34903,0.98057 4.11358,0.49122 1.74083,-0.49925 2.5233,-2.37373 z m 10.34822,-17.37469 q -0.55799,1.89955 -1.45427,3.21737 -0.92094,1.31057 -2.18017,2.0394 -1.25198,0.70416 -2.835,0.80192 -1.60043,0.0658 -3.49999,-0.49216 l -7.91893,-2.32618 q -1.1348,-0.33335 -1.52828,-1.09209 -0.41815,-0.76599 -0.0993,-1.85145 0.3261,-1.11013 1.08485,-1.50361 0.74132,-0.4254 1.87612,-0.092 l 7.96827,2.34067 q 1.89955,0.558 3.10805,0.002 1.2085,-0.55614 1.67954,-2.15966 0.46378,-1.57885 -0.25194,-2.70024 -0.71573,-1.12139 -2.61528,-1.67938 l -7.96827,-2.34068 q -1.1348,-0.33334 -1.53553,-1.06742 -0.41815,-0.76599 -0.0993,-1.85145 0.31886,-1.08546 1.0776,-1.47894 0.73407,-0.40073 1.86887,-0.0674 l 7.91893,2.32618 q 2.54097,0.74641 4.00696,2.14178 1.44857,1.36346 1.80473,3.34396 0.3315,1.97326 -0.40766,4.48956 z m 3.10067,-13.25523 q -0.21549,1.11061 -0.94372,1.6241 -0.74856,0.48336 -1.85918,0.26787 l -13.12541,-2.54668 q -1.13585,-0.22038 -1.6241,-0.94371 -0.48825,-0.72333 -0.27276,-1.83394 0.22039,-1.13585 0.93882,-1.59886 0.72332,-0.48825 1.85918,-0.26786 l 11.61094,2.25282 1.19497,-6.15884 q 0.18611,-0.95917 0.78888,-1.36604 0.58243,-0.43701 1.51635,-0.25581 0.93393,0.18121 1.3359,0.80922 0.40688,0.60277 0.22077,1.56194 z m 3.58984,-22.09417 q -0.0693,1.1292 -0.72302,1.70732 -0.67939,0.57656 -1.80859,0.50726 l -13.78136,-0.84575 q -1.18053,-0.0725 -1.733,-0.7246 -0.57812,-0.65372 -0.50883,-1.78292 0.0709,-1.15486 0.72303,-1.70733 0.62806,-0.5797 1.80859,-0.50725 l 5.59466,0.34334 0.003,-0.0513 -6.49513,-6.65835 q -0.48335,-0.51911 -0.73258,-1.07537 -0.27331,-0.5835 -0.23079,-1.27641 0.0661,-1.07788 0.6591,-1.50517 0.56886,-0.45454 1.30995,-0.35754 0.71701,0.0698 1.29829,0.67216 l 6.21441,6.61536 -1.92477,-0.11812 7.7655,-6.06655 q 0.78519,-0.62158 1.58076,-0.57275 0.76991,0.0472 1.25011,0.61768 0.48177,0.54477 0.41877,1.57132 -0.0535,0.87256 -0.42025,1.39102 -0.39078,0.49122 -1.1215,1.06463 l -7.39046,5.83196 -0.003,0.0513 6.00529,0.36853 q 1.1292,0.0693 1.73457,0.69894 0.5797,0.62806 0.50725,1.80859 z m 0.78693,-16.24101 q 0.0329,0.79639 -0.30451,1.35073 -0.36308,0.5554 -1.00003,0.71036 -0.66264,0.15602 -1.49957,-0.1697 l -14.03392,-5.82838 q -1.021,-0.42106 -1.51099,-1.06991 -0.49106,-0.67454 -0.52711,-1.548 -0.0361,-0.87346 0.39985,-1.5348 0.43484,-0.68703 1.4166,-1.2165 l 13.50578,-6.96526 q 0.80512,-0.44497 1.47836,-0.3441 0.67218,0.0752 1.05411,0.59983 0.38087,0.49896 0.41269,1.26966 0.0424,1.0276 -0.39667,1.61187 -0.44015,0.55858 -1.44972,1.03773 l -3.20536,1.52195 1.23595,-1.85239 0.43694,10.58429 -1.38549,-1.76991 3.3199,1.25258 q 1.04669,0.42 1.52926,0.88902 0.48257,0.46902 0.52393,1.47093 z m -13.71032,-6.71668 7.23916,2.68627 -1.20343,0.77023 -0.30861,-7.4758 1.26282,0.66842 -6.99206,3.2995 z m 12.38306,-14.39938 q 0.16338,1.11946 -0.35811,1.81919 -0.54695,0.70345 -1.66641,0.86684 l -13.43356,1.96059 q -1.14491,0.1671 -1.84465,-0.3544 -0.70344,-0.54694 -0.86683,-1.66641 l -0.91345,-6.25882 q -0.44559,-3.05308 0.81414,-4.92592 1.23059,-1.89456 3.87659,-2.28074 1.70464,-0.24879 3.08816,0.32882 1.35436,0.55588 2.24924,1.8804 0.86573,1.30278 1.1665,3.36361 l -0.48766,-0.1367 -0.17824,-1.22123 q -0.15967,-1.09402 0.25208,-2.0116 0.38631,-0.91386 1.3732,-1.62955 l 2.10415,-1.60631 q 0.67842,-0.51476 1.39452,-0.59329 0.69065,-0.0748 1.22659,0.39264 0.50679,0.44572 0.6516,1.43797 0.14482,0.99225 -0.16943,1.68772 -0.31796,0.67003 -1.11244,1.27969 l -3.91097,2.93536 q -0.51518,0.387 -0.64816,0.90011 -0.16215,0.49139 -0.073,1.102 l 0.20423,1.39933 4.55418,-0.66467 q 1.11947,-0.16338 1.84093,0.32896 0.69602,0.49606 0.86683,1.66641 z m -10.56945,-0.84798 -0.45301,-3.10396 q -0.1968,-1.34845 -0.83506,-1.98286 -0.63826,-0.6344 -1.75773,-0.47102 -1.06858,0.15596 -1.4989,0.94632 -0.45576,0.79408 -0.25895,2.14252 l 0.45301,3.10397 z m 7.48156,-17.05192 q 0.24331,1.10485 -0.22662,1.84021 -0.49504,0.74089 -1.625,0.98974 l -13.43396,2.95848 q -1.15506,0.25437 -1.89043,-0.21556 -0.73536,-0.46992 -0.97867,-1.57477 -0.24885,-1.12996 0.22661,-1.84021 0.46993,-0.73537 1.625,-0.98974 l 13.43396,-2.95848 q 1.12996,-0.24885 1.8849,0.19044 0.72983,0.44482 0.98421,1.59989 z m -1.70663,-7.6833 q 0.30508,0.98219 -0.0673,1.69018 -0.38004,0.68344 -1.36222,0.98853 l -13.62783,4.23298 q -1.00674,0.31271 -1.69781,-0.0919 -0.71562,-0.39696 -1.03596,-1.42826 -0.26694,-0.85941 -0.0757,-1.45728 0.15904,-0.6148 0.79058,-1.26866 l 7.83829,-8.22328 0.26694,0.85941 -11.11027,-2.31066 q -0.89848,-0.20555 -1.37023,-0.59749 -0.50393,-0.40887 -0.77088,-1.26829 -0.30508,-0.98218 0.0749,-1.66562 0.34786,-0.70037 1.3546,-1.01308 l 13.62783,-4.23299 q 0.98218,-0.30508 1.68255,0.0428 0.70037,0.34785 1.01308,1.35459 0.30508,0.98218 -0.0673,1.69018 -0.38003,0.68344 -1.36222,0.98852 l -8.4468,2.62369 -0.16017,-0.51564 8.10325,1.81773 q 0.64698,0.17597 1.03912,0.48495 0.3845,0.28442 0.58281,0.92284 0.19067,0.61387 0.0426,1.09064 -0.14807,0.47677 -0.58912,0.96378 l -5.66428,6.12104 -0.17542,-0.56476 8.47135,-2.63132 q 0.98219,-0.30508 1.68256,0.0428 0.70037,0.34785 1.01307,1.35459 z m -6.71939,-20.34366 q 0.32312,0.72864 0.21294,1.36815 -0.13368,0.64994 -0.66918,1.02804 -0.559,0.38853 -1.45707,0.393 l -15.19376,-0.26586 q -1.10429,-0.0166 -1.79837,-0.44009 -0.7045,-0.447 -1.05888,-1.24615 -0.35439,-0.79916 -0.19188,-1.57439 0.15208,-0.79873 0.87072,-1.65181 l 10.00307,-11.43938 q 0.58537,-0.70961 1.24861,-0.86309 0.6528,-0.17698 1.20075,0.17069 0.53753,0.32417 0.85022,1.0293 0.41692,0.94018 0.22315,1.6449 -0.2042,0.68121 -0.96719,1.49771 l -2.42223,2.59297 0.46912,-2.17689 4.2943,9.68385 -1.93877,-1.13724 3.54792,-0.0545 q 1.1278,0.006 1.74892,0.26513 0.62111,0.25897 1.02761,1.17565 z m -15.21907,-1.21094 7.71982,-0.16067 -0.83637,1.15844 -3.03311,-6.83981 1.42006,0.15782 -5.29125,5.63721 z m 6.25467,-17.95836 q 0.5687,0.97799 0.34546,1.82164 -0.24548,0.85658 -1.2457,1.43821 l -11.89151,6.91491 q -1.02244,0.59455 -1.8661,0.3713 -0.84365,-0.22325 -1.41235,-1.20124 -0.58163,-1.00022 -0.34545,-1.82165 0.22324,-0.84365 1.24569,-1.4382 l 4.15647,-2.41699 -3.76119,-6.46809 -4.15647,2.41699 q -1.02245,0.59455 -1.85318,0.39353 -0.84365,-0.22325 -1.42528,-1.22347 -0.5687,-0.97799 -0.33252,-1.79942 0.22324,-0.84365 1.24569,-1.4382 l 11.89151,-6.91491 q 1.00022,-0.58163 1.8661,-0.37131 0.83072,0.20103 1.39943,1.17902 0.58162,1.00022 0.35837,1.84387 -0.2584,0.83435 -1.25862,1.41598 l -4.37874,2.54624 3.7612,6.46809 4.37874,-2.54624 q 1.00022,-0.58163 1.85317,-0.39353 0.83073,0.20102 1.42528,1.22347 z"
           id="text124"
           style="font-size:25.7119px;font-family:Nunito;-inkscape-font-specification:'Nunito, @wght=900';font-variation-settings:'wght' 900;text-align:center;text-anchor:middle;fill:#f9f9f9;stroke-width:2.87163;stroke-linecap:round;paint-order:stroke fill markers"
           transform="translate(4.1793319e-6,2.125788e-5)"
           aria-label="CERDAS, KREATIF, TERAMPIL DAN BERAKHLAQUL KARIMAH" />
        <path
           id="path1"
           style="display:inline;fill:#ffd42a;fill-opacity:1;fill-rule:evenodd;stroke-width:1.87002"
           d="m 529.18708,414.11141 -3.9829,5.76897 2.05169,73.34996 c 0.64066,-0.0212 1.28026,-0.0477 1.92575,-0.0477 0.54037,0 1.07369,0.0265 1.61066,0.0424 l 2.35035,-73.34445 z m -70.79146,18.35875 -0.50146,6.94135 39.41017,62.74615 c 0.99444,-0.60959 2.00049,-1.19979 3.0324,-1.75315 l -35.56694,-64.87459 z m 141.57195,0.0106 -6.37157,3.05976 -35.55052,64.87735 c 1.02635,0.55087 2.02949,1.13836 3.01873,1.74494 l 39.40466,-62.74069 z m -62.18734,0.93136 -0.053,0.82725 0.0604,-0.81633 z m 0.0106,0.0106 -0.0684,0.98071 -3.62132,58.99606 c 0.8406,0.0668 1.67581,0.15161 2.50645,0.2518 l 6.514,-53.35862 z m -0.0684,0.98071 0.0106,-0.16432 -4.24317,59.11384 c 0.0371,0.002 0.0695,0.005 0.1039,0.0106 z m -17.13425,-0.96698 -5.33885,6.88109 6.514,53.33396 c 1.00101,-0.12139 2.00891,-0.21787 3.02418,-0.29049 z m 62.07231,11.54064 -8.14115,3.35013 -21.71435,49.59485 c 0.92876,0.38909 1.84592,0.80239 2.75024,1.23542 z m -106.95009,0.0106 27.10255,54.17218 c 0.90523,-0.43361 1.82047,-0.8485 2.75024,-1.23817 l -21.71164,-49.58387 z m 69.75875,8.01515 -6.61265,40.95786 c 0.98129,0.15584 1.95506,0.33501 2.92008,0.53687 l 7.73303,-36.19971 z m -32.56741,0.0265 -4.04047,5.29502 7.72758,36.17506 c 0.96587,-0.20249 1.94064,-0.3806 2.92278,-0.53687 z m -52.07665,0.38643 -1.10666,8.57402 33.07146,43.22323 c 0.80229,-0.59709 1.61872,-1.17594 2.45165,-1.73396 z m 136.69876,0.0106 -34.40547,50.04679 c 0.83419,0.55866 1.65089,1.13889 2.4544,1.73672 l 33.05779,-43.20955 z m -31.53194,4.7609 -6.20448,2.61051 -11.8721,35.33138 c 0.93963,0.30215 1.86977,0.62417 2.78862,0.96968 z m -73.61564,0.0106 15.28796,38.90611 c 0.91944,-0.34561 1.8483,-0.67024 2.78857,-0.97244 l -11.86934,-35.32316 z m 58.65092,6.94406 -7.38238,29.78431 c 1.02179,0.24807 2.03436,0.51789 3.0351,0.81633 l 8.91365,-29.2063 -2.59684,0.94228 z m -43.68344,0.0265 -1.96959,2.33661 -2.59683,-0.93963 8.90818,29.17895 c 1.00075,-0.29844 2.01332,-0.56852 3.03511,-0.81633 z m -43.16302,8.97661 -0.79162,6.5606 25.38221,27.77093 c 0.73009,-0.64702 1.47623,-1.27814 2.23802,-1.89012 z m 129.99574,0.0159 -12.89659,15.60576 -0.19719,0.23535 -13.71287,16.59463 c 0.75812,0.60939 1.5031,1.23775 2.2298,1.88191 l 25.37129,-27.75451 z m -180.23978,8.28088 -7.08379,0.4686 3.11457,6.25654 66.16753,35.04646 c 0.56014,-1.0121 1.15452,-2.00198 1.77234,-2.9776 z m 230.48929,0.0212 -63.95692,38.78557 c 0.6175,0.97572 1.21246,1.96545 1.77234,2.97759 l 66.1538,-35.03824 3.11462,-6.25654 z m -23.05658,1.72574 -44.20118,32.36195 c 0.61087,0.78527 1.20144,1.58437 1.77229,2.39964 l 51.19189,-33.67958 z m -184.36516,0.0106 -8.763,1.08201 51.18362,33.67407 c 0.57016,-0.81426 1.16232,-1.61246 1.77234,-2.39688 z m 28.56532,3.17484 -0.51206,2.98581 -2.7283,0.45746 22.85938,21.12542 c 0.71286,-0.74567 1.44586,-1.47167 2.19689,-2.1805 z m 127.22085,0.0265 -21.79932,22.37175 c 0.7514,0.70941 1.48376,1.43696 2.19694,2.18321 l 22.84565,-21.11445 -2.72829,-0.45481 z m 9.44781,0.3806 -28.4037,24.84258 c 0.6625,0.71514 1.30729,1.44523 1.93391,2.19143 l 33.17552,-26.25882 z m -146.1055,0.0106 -6.70579,0.77519 33.17007,26.25336 c 0.62571,-0.74525 1.26966,-1.47443 1.9312,-2.18867 z m -36.47641,12.07205 3.42413,7.96585 50.66589,21.22947 c 0.39862,-0.90989 0.8194,-1.80955 1.26282,-2.69543 z m 219.05281,0.0212 -55.31998,26.53276 c 0.43573,0.87326 0.84851,1.76057 1.24088,2.65711 L 635.285,507.84834 Z m -205.55356,16.28511 2.66807,6.07027 36.08463,11.60361 c 0.30904,-0.91954 0.64103,-1.82917 0.99439,-2.72835 z m 192.04609,0.0212 -39.7279,14.94007 c 0.35304,0.89903 0.68312,1.80902 0.99163,2.72835 l 36.0682,-11.59815 z m -184.083,10.75447 1.08477,2.83792 -2.13116,1.72844 30.46637,7.08655 c 0.24224,-0.99895 0.50888,-1.98777 0.8026,-2.96662 z m 176.12813,0.0212 -30.14864,8.91094 c 0.26717,0.90486 0.51366,1.81735 0.73688,2.73927 l 30.4609,-7.08379 -2.13115,-1.7312 z m -184.00631,5.3307 -5.41285,3.95279 41.86457,6.46746 c 0.15955,-0.96046 0.34137,-1.91255 0.54784,-2.85711 z m 191.88172,0.005 -36.99133,7.5632 c 0.2062,0.94349 0.3859,1.89494 0.54513,2.85434 l 41.8563,-6.46475 z m -210.2843,6.24286 -7.03449,5.22107 61.27792,4.10895 c 0.0737,-0.99232 0.17492,-1.97737 0.29843,-2.9557 z m 228.68959,0.003 -54.53651,6.37433 c 0.12351,0.97822 0.22211,1.96354 0.29579,2.9557 l 61.27516,-4.1062 z m 20.87612,9.75192 -37.11733,1.14499 -3.3529,0.10389 -34.50958,1.06558 c 0.0159,0.51789 0.0371,1.03239 0.0371,1.5532 0,0.63377 -0.0265,1.26102 -0.0477,1.89007 l 74.98804,2.00791 5.89497,-3.89528 z m -270.43908,0.005 -5.89496,3.87063 5.89496,3.89528 74.9908,-2.00791 c -0.0212,-0.63091 -0.0477,-1.25996 -0.0477,-1.89559 0,-0.52425 0.0265,-1.04289 0.0371,-1.56417 z m 135.59482,3.53641 -0.003,0.0106 z m -0.0631,0.5999 h 0.0106 z m 0.0265,0.0848 h 0.0106 z m -60.43694,3.95555 -61.26424,4.10895 7.03725,5.22383 54.52559,-6.37162 c -0.12457,-0.98002 -0.22423,-1.96709 -0.29844,-2.96116 z m 120.20004,0 c -1.1e-4,9e-4 5e-5,0.002 0,0.003 l 57.21551,3.83501 z m 57.21551,3.83776 -57.21551,-3.82955 c -0.0742,0.99132 -0.1744,1.97558 -0.29844,2.95295 l 54.53105,6.37162 7.0372,-5.22383 h -0.005 l -2.44894,-0.16433 z m -57.82638,1.31758 c -0.15956,0.96035 -0.34138,1.91265 -0.54785,2.8571 l 36.97215,7.55769 5.41286,-3.95279 z m -118.9783,0.005 -41.84813,6.46476 5.4101,3.95279 36.98863,-7.56045 c -0.20673,-0.94461 -0.39067,-1.89653 -0.5506,-2.8571 z m 0.84644,4.11441 -30.46912,7.08655 0.70947,0.57525 -0.53141,0.12616 1.79147,1.44904 -0.92038,2.41607 0.8793,-0.25179 -0.32335,0.85466 29.83636,-8.71645 c -0.36258,-1.16359 -0.68297,-2.34664 -0.97244,-3.53917 z m 117.28266,0.005 c -0.24225,0.99852 -0.51153,1.98825 -0.80536,2.96662 l 30.24177,8.68905 -1.08201,-2.83792 2.13115,-1.7285 z m -115.91027,4.74718 -36.09014,11.60637 -2.66537,6.07026 39.7526,-14.94828 c -0.3541,-0.89972 -0.68778,-1.80828 -0.99709,-2.72835 z m 114.53788,0.005 c -0.30957,0.91975 -0.6405,1.829 -0.99433,2.72835 l 39.76352,14.95104 -2.66532,-6.07027 z m -112.69711,4.78009 -50.6741,21.23224 -3.42413,7.96585 55.36106,-26.50536 c -0.44369,-0.88572 -0.86399,-1.783 -1.26283,-2.69273 z m 110.85904,0 c -0.39862,0.90973 -0.81914,1.80701 -1.26277,2.69273 l 55.37198,26.51357 -3.42138,-7.96585 z m -2.38591,4.83485 c -0.56019,1.01157 -1.15723,1.99975 -1.77504,2.97484 l 63.98978,38.80481 7.08384,-0.46594 -3.11462,-6.2593 z m -106.08446,0.003 -66.17574,35.05197 -3.11457,6.25654 7.08379,0.46859 63.98156,-38.7993 c -0.61834,-0.97583 -1.21437,-1.96534 -1.77504,-2.97764 z m 102.79184,5.25399 c -0.57059,0.81453 -1.16179,1.61225 -1.77234,2.39688 l 44.20669,32.36741 8.763,-1.08201 z m -99.49921,0.005 -51.1946,33.67958 8.763,1.08201 44.20393,-32.36746 c -0.60981,-0.78363 -1.20233,-1.58066 -1.77233,-2.39413 z m 96.32983,4.13084 c -0.62619,0.74562 -1.27183,1.47417 -1.93391,2.18872 l 28.40646,24.8481 6.70849,-0.77524 z m -93.16046,0.003 -33.17828,26.26157 6.70579,0.7752 28.4064,-24.8481 c -0.66213,-0.7145 -1.30767,-1.44311 -1.93391,-2.18867 z m 2.59138,2.87078 -22.8676,21.1391 2.72829,0.45481 0.51206,2.98581 21.82392,-22.39641 c -0.75161,-0.70909 -1.48345,-1.43727 -2.19689,-2.1832 z m 87.975,0 c -0.71307,0.74551 -1.44575,1.47178 -2.19693,2.18045 l 21.83488,22.40738 0.51207,-2.98857 2.72829,-0.45481 z m -3.583,3.46517 c -0.72982,0.64659 -1.47925,1.27586 -2.24072,1.88736 l 26.8505,32.46611 0.79438,-6.56335 z m -80.8063,0.003 -25.39318,27.77915 0.79162,6.56336 26.83958,-32.45514 c -0.76147,-0.61145 -1.50825,-1.24088 -2.23802,-1.88737 z m 76.79875,3.24608 c -0.80244,0.5972 -1.61866,1.17584 -2.45169,1.73396 l 34.43564,50.09064 1.10666,-8.57396 z m -72.78293,0.0106 -33.07968,43.23696 1.10665,8.57126 34.42467,-50.07696 c -0.83255,-0.55759 -1.64968,-1.13464 -2.45164,-1.73126 z m 68.26306,3.04338 c -0.99301,0.6087 -2.00197,1.19502 -3.03235,1.74764 l 35.58608,64.91022 6.37157,3.05981 0.50146,-6.94412 z m -63.746,0.003 -39.41838,62.75982 0.50146,6.94411 6.37432,-3.05981 35.57517,-64.89103 c -1.03203,-0.55314 -2.03791,-1.14365 -3.03241,-1.75309 z m 5.50324,3.00224 -27.11077,54.19408 8.1412,-3.35014 21.71981,-49.60853 c -0.9294,-0.38961 -1.84533,-0.80223 -2.75024,-1.23541 z m 52.73406,0 c -0.90427,0.43308 -1.82153,0.84623 -2.75024,1.23541 l 21.71711,49.59756 8.14114,3.35019 z m -47.88553,2.05721 -15.29343,38.92805 6.20449,-2.6078 11.87755,-35.34781 c -0.94037,-0.30215 -1.86907,-0.62672 -2.78861,-0.97244 z m 42.75484,0.10972 c -0.829,0.30692 -1.66886,0.59115 -2.51467,0.86288 l 11.87756,35.34781 6.20724,2.6078 z m -38.72805,1.25185 -8.90819,29.18165 2.59684,-0.93957 1.96958,2.33661 7.37687,-29.76236 c -1.02184,-0.24755 -2.0343,-0.51842 -3.0351,-0.81633 z m 34.98072,0 c -1.0008,0.29844 -2.01331,0.56862 -3.03516,0.81633 l 7.38515,29.78977 1.97228,-2.33662 2.59413,0.94233 z m -30.07738,1.24093 -7.72758,36.18052 4.04046,5.29231 6.60719,-40.93596 c -0.98129,-0.15584 -1.95511,-0.33501 -2.92007,-0.53687 z m 25.17404,0 c -0.96486,0.20196 -1.93899,0.37795 -2.92007,0.53411 l 6.61265,40.96337 4.04046,-5.29231 z m -20.00227,0.84093 -6.51406,53.34769 5.33886,6.88384 4.20209,-59.94115 c -1.01623,-0.0721 -2.02503,-0.1691 -3.02689,-0.29049 z m 14.83326,0 c -1.00011,0.12086 -2.00712,0.21839 -3.02149,0.29048 l 4.19934,59.95759 5.33891,-6.88384 z m -9.341,0.41929 -2.05175,73.36365 3.98296,5.76891 3.95554,-5.76891 -2.34212,-73.35819 c -0.54064,0.0159 -1.07761,0.0424 -1.62164,0.0424 -0.64453,0 -1.28323,-0.0265 -1.92299,-0.0477 z" />
        <path
           style="color:#000000;fill:#ffd42a;fill-opacity:1;fill-rule:evenodd;stroke-width:5.30085;-inkscape-stroke:none"
           d="m 529.17945,491.19397 c -34.26204,0 -62.27464,27.37168 -62.27464,60.95976 0,33.58814 28.0126,60.95977 62.27464,60.95977 34.26193,0 62.27463,-27.37152 62.27463,-60.95977 0,-33.58819 -28.0127,-60.95976 -62.27463,-60.95976 z m 0,3.98597 c 32.13878,0 58.28861,25.60427 58.28861,56.97379 0,31.36958 -26.14983,56.97379 -58.28861,56.97379 -32.13894,0 -58.27828,-25.60411 -58.27828,-56.97379 0,-31.36957 26.13934,-56.97379 58.27828,-56.97379 z"
           id="path2" />
        <path
           d="m 512.46385,539.07224 c -0.54137,3.01375 1.67497,4.65765 4.05553,5.66094 3.40606,1.4272 4.16227,0 3.29797,-1.90613 -2.7566,-3.75481 -2.05514,-6.76982 0.54005,-11.69081 1.73258,-3.59679 4.16361,-4.81397 5.02924,1.26807 -0.21469,7.08925 2.54302,11.1128 5.40903,3.38941 0.70279,-1.32288 2.70333,-0.95373 3.18857,2.1161 0.21734,3.11939 -2.37769,5.82007 -3.8913,8.19686 -0.75754,1.27088 -1.62434,2.27677 0,4.5494 0.97223,1.05938 2.38051,10.68885 3.94611,15.1846 0.59614,1.95697 1.7857,4.23485 2.65133,6.02855 0.91874,1.37918 1.62015,2.43458 3.02715,-0.94959 1.40574,-3.27852 2.97542,-6.40316 4.97575,-9.41685 1.30046,-1.90348 0.26928,-3.01634 -2.75787,-1.37504 -0.86563,0.89743 -2.21788,2.06394 -3.08197,2.96137 -2.38188,2.01178 -3.46347,0.2661 -3.51679,-3.01353 0.16273,-3.86178 0.16273,-5.8214 1.5682,-9.20556 1.02985,-3.12199 6.32815,-6.03269 10.60117,-6.77099 3.18989,-1.00589 11.13819,0.10443 6.75863,-5.97787 -0.59486,-3.01619 0.32388,-6.24382 4.27429,-7.56818 11.94907,-1.9557 16.32995,9.73516 10.0581,13.70518 -5.94931,1.00329 -1.83913,3.64767 -1.56969,7.35032 -3.0287,-0.58066 -5.13843,-1.85 -6.8654,-4.33657 -2.92341,1.63981 -5.41206,2.54006 -9.51804,3.49114 8.0003,3.06982 16.27535,2.6457 24.33026,1.11286 3.3556,-2.22048 4.27566,0.15531 2.76206,3.54329 -0.65079,3.70132 -4.00076,5.28898 -7.14162,4.97204 -11.40902,1.48196 -22.06325,3.43898 -27.52296,15.34368 -0.8122,4.39138 4.65032,4.17744 10.87023,4.01682 0.21363,2.70349 1.08159,5.55789 3.13805,7.77836 1.67369,2.16832 -1.2484,2.80505 -2.97669,2.64852 -16.28076,2.00897 -22.82211,-12.91064 -25.25462,-21.8501 -0.75754,-2.96545 -0.91896,-2.53873 -2.59651,0.20991 -6.70272,11.2695 -17.68369,17.29805 -26.76828,17.24589 -11.57319,-1.95416 -13.57484,-11.95431 -11.19582,-18.6196 -11.67698,-8.4108 -8.379,-19.94641 -6.27334,-26.98106 1.19253,-3.3346 4.37961,-2.27395 3.89432,1.32172 -0.21469,5.44943 0,11.42587 2.59524,14.38873 1.35352,1.69457 4.86766,2.43568 5.57188,-3.17155 2.21899,-7.66991 4.76091,-12.38236 11.24612,-16.50616 4.70779,-2.80765 7.08703,-1.58781 7.14162,2.85573 z m -12.00647,15.65956 c 0.59486,-2.27523 2.05498,-4.75921 4.05552,-6.2427 1.18951,-0.84676 2.75639,-1.58634 3.94744,1.43001 2.48864,4.75772 9.03126,5.65796 12.81602,3.48965 2.16582,-1.53284 2.65127,-0.73957 2.86595,0.94981 0.27194,4.39546 -1.51376,7.67398 -3.62201,10.5832 -4.11161,4.86485 -10.05958,8.62358 -15.24726,10.73967 -5.68129,2.2218 -9.25003,0.63399 -11.73846,-3.38416 -0.64946,-1.64131 -0.86563,-3.54744 1.29892,-4.76313 1.02831,-0.73979 2.26982,-2.85589 3.13677,-5.82007 1.02402,-3.38417 1.24152,-4.07307 2.48711,-6.98228 z m 62.1356,-18.51528 c 1.76322,0 1.76232,2.64443 0,2.64443 -1.76248,0 -1.76344,-2.64443 0,-2.64443 z m -7.46159,-12.6967 c -1.73088,2.1135 -3.51658,4.17744 -6.27466,6.08076 -1.29892,1.32437 -2.43368,1.85392 -2.92061,4.65637 -0.86415,3.2798 -1.0801,4.4983 1.18972,3.44158 5.35571,-3.28117 10.54615,-8.88974 13.52157,-14.33784 0.58659,-0.0212 6.20395,-0.81199 4.65016,-2.11743 -0.97482,-0.42406 -2.10973,-0.15637 -2.92188,-0.89759 -1.83769,-0.69022 0,-2.80224 -0.70427,-4.07312 -1.77748,-5.18725 -8.75769,-2.857 -8.8671,1.42869 -0.053,1.48068 0.64946,3.1179 1.78437,3.96726 1.46161,0.47389 1.40701,1.10761 0.5427,1.85132 z m 2.44078,-6.91289 c 1.68562,-0.45375 2.29993,1.74212 0.61538,2.1937 -1.68785,0.4527 -2.30275,-1.73931 -0.61538,-2.1937 z m -49.16235,12.25535 c -1.24708,2.3796 -2.11255,6.45272 1.35092,4.91988 2.10698,-1.79916 4.2702,-3.28006 6.75864,-4.81551 6.27334,-4.28441 14.27629,-7.45861 21.90056,-10.05099 3.03002,-1.37223 4.49029,-2.48398 7.08554,-6.0312 1.78172,-4.23092 0.32547,-5.81726 -3.35279,-3.59678 -9.67924,5.23941 -20.55229,10.58054 -30.77047,14.8648 -1.46288,0.68757 -1.94557,2.1135 -2.9724,4.7098 z m 0.70146,-7.14162 c 5.35444,-2.27523 12.60134,-6.50876 15.51633,-7.93728 1.24432,-0.74111 2.81682,-2.22047 3.30205,-3.3829 1.7831,-5.66205 -1.24543,-4.55311 -3.35384,-3.12198 -4.5423,3.06723 -14.98057,6.08208 -16.81562,8.51385 -2.48716,2.48938 -3.08329,7.67117 1.35108,5.92831 z m -21.25391,13.86177 c 2.06579,0.2555 4.80649,1.1981 6.16398,-0.90157 l 1.18819,-2.48657 c 0.70687,-1.26934 -0.37583,-3.27852 -1.83765,-3.5433 -1.85885,-0.27565 -5.37219,-1.37764 -6.21726,1.11021 -0.71418,1.8016 -2.4316,5.08086 0.70274,5.82123 z m 11.24909,-4.65748 c 2.06807,0.25656 4.80543,1.20032 6.16658,-0.89892 l 1.18691,-2.48658 c 0.70279,-1.27347 -0.38007,-3.27984 -1.83913,-3.54483 -1.86425,-0.27724 -5.36642,-1.37764 -6.21991,1.11153 -0.71471,1.80367 -2.42895,5.07673 0.70555,5.8188 z m 31.90522,1.79895 c 0.59487,0.68497 5.19044,2.80372 7.78563,-0.21151 0.81368,-0.68874 0.59618,-4.07444 2.97542,-2.27788 4.67354,0.78426 6.00946,-4.00225 4.32628,-7.45861 -0.81087,-2.37961 -4.43569,-2.06129 -4.54378,1.00721 -0.15849,1.63849 -1.459,2.85589 -2.00165,0.42142 0,-0.95108 -2.48456,-1.37504 -3.24338,0.68763 -0.81087,4.07439 -3.62207,4.07439 -4.16212,0.90151 -0.16274,-1.6413 -2.21507,-1.37631 -3.0315,0.58066 -0.80934,2.43436 0.1092,4.7618 1.8951,6.34946 z m -17.469,60.04563 c 5.62654,-4.23353 9.63021,-7.35424 14.70975,-12.16969 1.40441,-1.63855 2.81274,-8.30256 -0.756,-5.60729 -4.00093,3.8631 -8.32721,6.61445 -12.49066,8.94205 -1.407,0.68742 -3.73423,2.32745 -3.89692,3.70381 -0.32547,1.63865 -0.43361,2.32479 -0.91614,3.59827 -0.43202,2.43309 -0.0557,4.22944 3.34997,1.53285 z m 16.11416,-10.95103 c 0.75866,-1.48084 1.7337,-2.06675 2.54451,-0.42407 0.16539,4.60268 1.18957,5.07769 2.37908,7.67139 0.70422,2.0103 1.13358,3.4375 0.64962,5.44943 -0.48821,1.32288 -1.73105,2.59223 -2.86315,3.28112 -1.14053,0.68747 -4.11447,0.57918 -4.54643,-1.37912 -0.21893,-1.32155 -0.053,-2.64311 0.97747,-3.43765 0.69881,-0.89892 2.05382,-0.79195 0.37583,-5.44943 -0.65073,-1.47936 -0.48661,-3.28112 0.48291,-5.71161 z m 25.09305,-11.11169 c 0.43626,-0.95087 1.13905,-1.53285 2.43664,-2.27391 1.51101,-0.63525 3.13678,-1.37504 5.18916,-1.58765 3.51807,-0.47496 4.16621,0.84803 2.97256,2.91069 -0.91742,1.06065 -1.1321,1.48329 -2.26982,2.54134 -1.46161,1.11026 -1.78024,3.43765 0.59618,2.85588 0.64814,-0.10548 1.24427,-0.69149 1.73105,-1.48217 1.56841,-1.53284 3.89565,0.20992 2.86453,2.48658 -0.91748,1.32023 -1.8897,2.27136 -3.07922,3.33068 -1.84045,1.64263 -6.05865,1.32288 -7.3043,-0.15797 -0.64813,-0.63657 -1.72956,-2.38093 -0.32282,-4.81136 1.24411,-1.21851 4.3248,-4.07837 -0.97223,-2.06527 -0.97504,0.0535 -2.21655,-0.0535 -1.84199,-1.747 z"
           style="fill:#ffd42a;fill-opacity:1;fill-rule:evenodd;stroke-width:1.87002"
           id="path3-2" />
        <path
           d="m 617.41941,603.56146 8.94188,-0.0404 -10.64622,32.31397 2.16324,29.38103 h 6.65055 v 12.06538 h -87.11833 v -80.70602 h 16.13361 l 18.22748,15.79383 v 3.68525 c -1.20056,-0.3409 -2.47236,-0.37793 -3.78586,-0.0722 -20.21699,4.70553 -19.01195,51.39175 7.95133,51.39175 10.79508,0 21.04429,-7.20389 21.04429,-18.51471 0,-7.83521 -6.55443,-13.38412 -14.70248,-12.52391 v -5.93639 h 26.37123 z"
           style="fill:#ffd42a;fill-opacity:1;fill-rule:evenodd;stroke-width:1.87002"
           id="path4-9" />
        <path
           d="m 440.94396,603.56146 -8.94188,-0.0404 10.64622,32.31397 -2.16343,29.38103 h -6.65035 v 12.06538 h 87.11832 v -80.70602 h -16.13361 l -18.22747,15.79383 v 3.68525 c 1.20055,-0.3409 2.47235,-0.37793 3.78585,-0.0722 20.217,4.70553 19.01195,51.39175 -7.95133,51.39175 -10.79507,0 -21.04429,-7.20389 -21.04429,-18.51471 0,-7.83521 6.55443,-13.38412 14.70249,-12.52391 v -5.93639 h -26.37124 z"
           style="fill:#ffd42a;fill-opacity:1;fill-rule:evenodd;stroke-width:1.87002"
           id="path5-1" />
        <path
           d="m 306.90375,596.58489 q 0.1385,2.46445 -0.0788,5.19612 -0.15917,2.66659 -0.70187,5.10752 -0.54269,2.44093 -1.35953,4.40281 -0.70746,1.70852 -1.96321,2.45895 -1.31736,0.7539 -2.80642,0.65216 -1.48906,-0.10174 -2.64654,-0.90198 -1.21908,-0.79677 -1.66839,-2.19306 -0.51091,-1.39282 0.18963,-3.22456 0.97744,-2.40355 1.42736,-5.39551 0.44992,-2.99197 0.3045,-5.57964 -0.22851,-4.06635 -1.36593,-5.60938 -1.20248,-1.60118 -2.80438,-1.51116 -1.41706,0.0796 -2.21383,1.29872 -0.80024,1.15747 -1.25362,4.08783 l -1.13519,7.29508 q -0.89984,5.98393 -3.81768,9.05277 -2.91783,3.06885 -7.78512,3.34238 -3.20379,0.18004 -5.86417,-0.96838 -2.72546,-1.20657 -4.70883,-3.50554 -1.98683,-2.36058 -3.15958,-5.63219 -1.23782,-3.32977 -1.46979,-7.45772 -0.18005,-3.20379 0.37579,-6.51074 0.49075,-3.36509 1.77278,-5.84756 0.6597,-1.45861 1.91892,-2.14743 1.25921,-0.68883 2.6832,-0.64524 1.36237,0.0471 2.45823,0.85075 1.09241,0.74209 1.54171,2.13838 0.38423,1.33813 -0.30939,3.29309 -0.70054,1.83174 -0.9421,4.13213 -0.30663,2.24224 -0.18892,4.33703 0.12811,2.27962 0.77263,3.85035 0.58291,1.57419 1.61717,2.38135 1.03079,0.74555 2.32463,0.67284 1.29383,-0.0727 2.15914,-1.17203 0.80024,-1.15748 1.25362,-4.08783 l 1.13865,-7.23347 q 0.95799,-6.049 3.74914,-9.17254 2.79115,-3.12353 7.53522,-3.39013 3.20379,-0.18004 5.86417,0.96838 2.66039,1.14842 4.64376,3.44739 1.92176,2.30243 3.09796,5.63565 1.17621,3.33323 1.41511,7.58441 z m -0.57734,-29.19812 q -0.3834,2.43838 -1.93538,3.56863 -1.54239,1.06928 -3.98077,0.68589 l -33.83256,-5.3196 q -2.49935,-0.39298 -3.55905,-1.99634 -1.12065,-1.61293 -0.71809,-4.17324 0.33547,-2.13358 1.3806,-3.21858 0.99376,-1.15555 3.04645,-1.89473 l 25.59114,-9.40655 -0.33547,2.13358 -21.47923,-16.7451 q -1.71722,-1.39441 -2.318,-2.7382 -0.65215,-1.41434 -0.31668,-3.54793 0.38339,-2.43838 1.92579,-3.50766 1.49101,-1.13983 3.99036,-0.74685 l 33.83256,5.3196 q 2.43838,0.38339 3.57821,1.87441 1.13983,1.49102 0.74685,3.99036 -0.3834,2.43839 -1.93537,3.56863 -1.5424,1.06928 -3.98078,0.68589 l -20.97009,-3.2972 0.20128,-1.28015 15.52552,12.49826 q 1.20692,1.0643 1.72412,2.14508 0.52678,1.01983 0.27757,2.60478 -0.23962,1.52399 -1.06353,2.39391 -0.82392,0.86992 -2.28963,1.45153 l -18.68239,7.1821 0.22045,-1.40207 21.03106,3.30678 q 2.43838,0.38339 3.57821,1.87441 1.13983,1.49102 0.74685,3.99036 z m 11.22354,-53.66023 q -0.98566,2.52995 -2.90326,3.37229 -1.97511,0.81994 -4.50506,-0.16571 l -30.35941,-11.82788 q -2.58745,-1.00805 -3.42979,-2.92566 -0.81994,-1.9751 0.16571,-4.50505 l 5.51071,-14.14473 q 2.68816,-6.89986 7.70917,-9.24841 4.98592,-2.42845 11.1958,-0.009 6.20988,2.41933 8.29632,7.60314 2.05135,5.1039 -0.6368,12.00377 l -3.4722,8.91233 9.14233,3.5618 q 2.52995,0.98566 3.45219,2.86816 0.86474,1.86011 -0.16571,4.50506 z m -20.53615,-14.0936 2.75536,-7.07236 q 1.16486,-2.98995 0.52712,-5.09274 -0.69524,-2.1252 -3.28269,-3.13326 -2.64495,-1.03046 -4.53716,0.0867 -1.89221,1.11714 -3.05707,4.10709 l -2.75536,7.07236 z m 45.85939,-38.93396 q -1.52522,1.94072 -3.43149,2.16924 -1.86814,0.18001 -3.80886,-1.34521 l -26.92752,-21.16244 q -1.98924,-1.56335 -2.13112,-3.48001 -0.19039,-1.95479 1.41109,-3.99255 1.33457,-1.69813 2.77643,-2.13466 1.43148,-0.52318 3.58376,-0.16595 l 26.92603,4.28701 -1.33457,1.69813 -10.56804,-25.10125 q -0.81771,-2.05537 -0.68583,-3.52143 0.12149,-1.55271 1.45606,-3.25084 1.52522,-1.94072 3.39336,-2.12073 1.85775,-0.26665 3.84699,1.2967 l 26.92752,21.16244 q 1.94072,1.52522 2.20738,3.38297 0.26665,1.85775 -1.2967,3.847 -1.52522,1.94072 -3.43149,2.16924 -1.86814,0.18001 -3.80886,-1.34521 l -16.69021,-13.1169 0.80074,-1.01888 7.44604,18.48795 q 0.53357,1.51813 0.45718,2.71385 -0.0383,1.14721 -1.02965,2.40868 -0.95326,1.21295 -2.09705,1.5698 -1.14379,0.35686 -2.70688,0.14872 l -19.81072,-2.85475 0.877,-1.11592 16.73873,13.15503 q 1.94072,1.52522 2.20738,3.38297 0.26665,1.85776 -1.2967,3.847 z m 46.55492,-49.8717 q -3.69703,2.98484 -7.26634,4.35967 -3.60807,1.32682 -7.08841,1.04363 -3.43234,-0.32196 -6.68894,-2.29268 -3.24735,-2.05751 -6.23219,-5.75454 l -12.44329,-15.41228 q -1.78315,-2.20861 -1.5224,-4.24326 0.22198,-2.08266 2.33457,-3.78828 2.1606,-1.74438 4.19524,-1.48364 2.0439,0.17397 3.82705,2.38258 l 12.52081,15.50831 q 2.98484,3.69703 6.1291,4.25157 3.14425,0.55454 6.26512,-1.96513 3.07285,-2.48091 3.19351,-5.67141 0.12065,-3.1905 -2.86419,-6.88752 l -12.52082,-15.50831 q -1.78315,-2.20862 -1.57041,-4.2045 0.22198,-2.08266 2.33456,-3.78828 2.11259,-1.70562 4.14724,-1.44488 1.99588,0.21273 3.77903,2.42135 l 12.44329,15.41228 q 3.9927,4.94537 4.97771,9.70182 0.99426,4.66966 -1.00993,9.06362 -2.04295,4.34594 -6.94031,8.29988 z m 26.36134,-18.9893 q -2.42413,1.22303 -4.41348,0.56788 -2.01715,-0.71024 -3.26797,-3.18946 l -14.87086,-29.47516 q -1.27862,-2.53431 -0.62347,-4.52366 0.65514,-1.98936 3.07927,-3.21238 2.47922,-1.25082 4.41348,-0.56788 1.98935,0.65515 3.26797,3.18946 l 5.19785,10.30253 16.03228,-8.08863 -5.19785,-10.30253 q -1.27862,-2.53432 -0.67857,-4.49588 0.65515,-1.98935 3.13437,-3.24017 2.42412,-1.22302 4.35838,-0.54008 1.98936,0.65514 3.26797,3.18946 l 14.87086,29.47515 q 1.25082,2.47922 0.62347,4.52367 -0.60005,1.96156 -3.02417,3.18458 -2.47922,1.25082 -4.46858,0.59568 -1.96205,-0.73804 -3.21287,-3.21726 l -5.47581,-10.85347 -16.03229,8.08864 5.47582,10.85347 q 1.25082,2.47922 0.67856,4.49587 -0.60005,1.96156 -3.13436,3.24017 z m 40.59076,-18.96281 q -1.85195,0.47926 -3.32294,-0.0325 -1.48646,-0.57144 -2.17166,-1.98765 -0.70066,-1.47596 -0.35901,-3.60409 l 6.58882,-35.87045 q 0.47239,-2.60816 1.74736,-4.08545 1.33471,-1.49275 3.36589,-2.01839 2.03118,-0.52564 3.80297,0.16319 1.83153,0.67337 3.56954,2.70951 l 23.16195,28.17136 q 1.45057,1.66434 1.55382,3.29489 0.163,1.61509 -0.87511,2.77612 -0.97837,1.14557 -2.77058,1.60937 -2.38962,0.6184 -3.98219,-0.11681 -1.53283,-0.75067 -3.16682,-2.87747 l -5.18941,-6.7522 4.97029,1.96456 -24.61308,6.36953 3.45311,-4.14443 -1.26256,8.42188 q -0.45693,2.6679 -1.31372,4.03697 -0.85679,1.36907 -3.18667,1.97201 z m 8.83644,-35.55972 -2.64748,18.34148 -2.41481,-2.43467 17.38448,-4.49886 -0.93065,3.30043 -11.27206,-14.7393 z m 40.17617,24.59464 q -2.46753,0.0633 -3.85951,-1.25897 -1.33028,-1.32389 -1.39362,-3.79142 l -0.87877,-34.23694 q -0.0649,-2.52921 1.32066,-3.86108 1.384,-1.39356 3.9749,-1.46006 2.15909,-0.0554 3.41502,0.77655 1.31603,0.76869 2.41382,2.65411 l 13.87414,23.47121 -2.15909,0.0554 12.59009,-24.15048 q 1.06131,-1.94083 2.27449,-2.77444 1.27328,-0.89689 3.43237,-0.95231 2.46752,-0.0633 3.79781,1.26056 1.39039,1.26061 1.45531,3.78983 l 0.87877,34.23694 q 0.0633,2.46753 -1.19729,3.85792 -1.26061,1.39039 -3.78983,1.45531 -2.46753,0.0633 -3.8595,-1.25897 -1.33029,-1.32389 -1.39362,-3.79142 l -0.54468,-21.22073 1.29545,-0.0333 -9.48845,17.52761 q -0.8288,1.37931 -1.7984,2.08321 -0.9079,0.70232 -2.51179,0.74349 -1.54221,0.0396 -2.54664,-0.61365 -1.00443,-0.65324 -1.84121,-1.9898 l -10.43841,-17.07787 1.41883,-0.0364 0.54626,21.28243 q 0.0633,2.46752 -1.19728,3.85791 -1.26062,1.39039 -3.78983,1.45531 z m 54.45225,0.84355 q -2.40959,-0.53536 -3.44041,-2.15507 -0.97059,-1.60634 -0.43523,-4.01592 l 7.42805,-33.43299 q 0.54873,-2.46982 2.21531,-3.42702 1.67995,-1.01744 4.21002,-0.45532 2.10838,0.46843 3.1258,1.57947 1.09104,1.06417 1.70022,3.15913 l 7.78534,26.13002 -2.10839,-0.46844 18.05745,-20.38834 q 1.49922,-1.62652 2.878,-2.14196 1.4524,-0.56229 3.56079,-0.0939 2.40959,0.53535 3.38017,2.14168 1.04421,1.55948 0.49547,4.02931 l -7.42804,33.43298 q -0.53536,2.40959 -2.09484,3.4538 -1.55947,1.04421 -4.0293,0.49547 -2.40958,-0.53536 -3.44041,-2.15507 -0.97058,-1.60634 -0.43523,-4.01592 l 4.60405,-20.72243 1.26503,0.28106 -13.44606,14.71229 q -1.1378,1.1379 -2.24885,1.58639 -1.05082,0.46188 -2.61705,0.1139 -1.50599,-0.3346 -2.3226,-1.21138 -0.81661,-0.87677 -1.30528,-2.37603 l -5.99795,-19.09552 1.38551,0.30783 -4.61744,20.78266 q -0.53535,2.40959 -2.09483,3.4538 -1.55948,1.04421 -4.0293,0.49547 z m 49.62607,12.85145 q -1.72567,-0.82552 -2.52187,-2.16407 -0.76956,-1.39423 -0.38216,-2.91905 0.41403,-1.58049 2.04551,-2.98902 l 28.13446,-23.20676 q 2.04055,-1.69168 3.96722,-2.00132 1.98234,-0.28301 3.87502,0.62239 1.89268,0.9054 2.80502,2.57314 0.96801,1.69438 0.98714,4.37135 l -0.41231,36.46822 q 0.0385,2.20742 -0.93218,3.52161 -0.91503,1.34083 -2.45685,1.56095 -1.48615,0.24674 -3.15616,-0.55214 -2.22668,-1.06518 -2.97202,-2.65303 -0.68968,-1.56123 -0.57084,-4.2406 l 0.37593,-8.5077 2.53858,4.70308 -22.93479,-10.97134 5.31046,-0.94832 -6.38796,5.63171 q -2.06718,1.74735 -3.60418,2.2434 -1.53701,0.49604 -3.70802,-0.5425 z m 29.65433,-21.52203 -13.83373,12.33074 -0.28046,-3.41764 16.19909,7.74917 -2.83689,1.92639 0.86332,-18.5354 z m 15.65354,44.84317 q -2.29082,-1.77873 -2.60105,-3.89464 -0.22364,-2.12681 1.51725,-4.36889 l 19.49037,-25.10151 q 1.74089,-2.24208 3.81896,-2.50357 2.16465,-0.27238 4.45547,1.50635 l 9.5532,7.4177 q 8.9683,6.96355 10.36061,15.23224 1.44104,8.30654 -4.91698,16.49499 -3.17901,4.09423 -6.94407,6.32714 -3.72721,2.18417 -7.8564,2.57183 -4.09134,0.33891 -8.50897,-1.21618 -4.33104,-1.56598 -8.81519,-5.04776 z m 9.92815,-3.93198 4.67912,3.63316 q 2.58326,2.0058 4.9274,2.8103 2.39289,0.84234 4.55754,0.56995 2.2134,-0.23454 4.23641,-1.63254 2.07176,-1.36017 4.03972,-3.89469 3.93592,-5.06904 3.30456,-9.38745 -0.59351,-4.36716 -5.66256,-8.30308 l -4.67911,-3.63316 z m 26.10892,35.85583 q -1.8683,-1.97018 -1.81272,-4.0639 0.10035,-2.13618 2.11531,-4.04694 l 23.95566,-22.71682 q 2.05974,-1.95322 4.15346,-1.89764 2.09372,0.0556 3.96202,2.02576 1.91076,2.01496 1.81272,4.0639 -0.0556,2.09372 -2.11531,4.04694 l -23.95566,22.71681 q -2.01496,1.91076 -4.111,1.94243 -2.05126,-0.0108 -4.00448,-2.07054 z m 18.78943,22.62247 q -1.61192,-2.18493 -1.29937,-4.25593 0.3622,-2.10764 2.64644,-3.79282 l 13.60612,-10.03785 -3.62328,5.58706 8.01065,-23.54721 q 0.56899,-1.7234 2.08232,-2.68649 1.59963,-0.95006 3.3621,-0.63994 1.84876,0.32313 3.31414,2.30943 1.02577,1.3904 1.17316,3.04541 0.19705,1.61836 -0.6593,3.78381 l -5.10059,14.49874 -1.31884,-1.78767 15.4079,-0.6313 q 2.35836,-0.1295 3.80987,0.48671 1.4515,0.61621 2.55053,2.10594 1.39212,1.88698 1.21795,3.62584 -0.17417,1.73886 -1.5776,2.85091 -1.36679,1.16172 -3.5892,1.2676 l -24.68993,0.73087 6.37086,-1.86276 -13.60611,10.03785 q -4.71745,3.48028 -8.08782,-1.0882 z m 12.51194,17.94522 q -0.83216,-1.72249 -0.61798,-3.26514 0.26974,-1.5695 1.52463,-2.51841 1.31044,-0.97576 3.4643,-1.05686 l 36.46637,-0.55279 q 2.65018,-0.0467 4.34827,0.91473 1.72493,1.01704 2.63761,2.90621 0.91269,1.88918 0.58363,3.76147 -0.30222,1.92785 -1.95918,4.03046 l -23.09821,28.22365 q -1.34855,1.74802 -2.92743,2.16814 -1.55204,0.47568 -2.89365,-0.31535 -1.31477,-0.73547 -2.12008,-2.40239 -1.07375,-2.22256 -0.66416,-3.92815 0.43643,-1.65003 2.20265,-3.66837 l 5.60706,-6.4096 -0.9547,5.25851 -11.0596,-22.89236 4.73967,2.57601 -8.50619,0.40869 q -2.70574,0.0736 -4.21593,-0.49893 -1.51018,-0.57253 -2.55708,-2.73952 z m 36.60116,1.7122 -18.50509,0.99028 1.91545,-2.84429 7.81151,16.16912 -3.41869,-0.2673 12.2505,-13.93668 z m -16.37915,44.68815 q -0.6349,-2.6399 0.45874,-4.42615 1.15363,-1.80068 3.85353,-2.45001 l 32.09878,-7.71981 q 2.7599,-0.66376 4.54615,0.42987 1.78626,1.09364 2.42116,3.73354 0.64933,2.6999 -0.45874,4.42615 -1.09363,1.78626 -3.85353,2.45002 l -11.21957,2.69832 4.199,17.45934 11.21957,-2.69832 q 2.7599,-0.66376 4.53172,0.36988 1.78625,1.09363 2.43558,3.79353 0.6349,2.6399 -0.47316,4.36616 -1.09364,1.78625 -3.85353,2.45001 l -32.09879,7.71981 q -2.69989,0.64933 -4.54615,-0.42988 -1.77182,-1.03364 -2.40672,-3.67354 -0.64933,-2.69989 0.44431,-4.48615 1.16806,-1.74068 3.86796,-2.39001 l 11.81955,-2.84263 -4.199,-17.45933 -11.81955,2.84262 q -2.6999,0.64933 -4.53172,-0.36988 -1.77183,-1.03364 -2.43559,-3.79354 z m 9.34986,73.68163 q 0.10223,-2.96024 0.89349,-6.20542 0.79127,-3.24517 2.30556,-5.97141 0.92091,-1.63532 2.30111,-2.26686 1.43975,-0.56773 2.85181,-0.33373 1.40993,0.29567 2.49021,1.19741 1.07814,0.96341 1.33965,2.33084 0.32104,1.43122 -0.59987,3.06655 -1.05703,2.00109 -1.62494,4.14256 -0.57005,2.20314 -0.63607,4.11497 -0.0724,2.09684 0.49319,3.59826 0.56561,1.50142 1.71181,2.28194 1.14408,0.8422 2.74754,0.89757 2.46687,0.0852 3.94283,-1.53096 1.47595,-1.61615 1.57179,-4.39138 0.0426,-1.23344 -0.27632,-2.72634 -0.32105,-1.43122 -1.31622,-3.00922 -0.34661,-0.69117 -0.79952,-1.87997 -0.39123,-1.18667 -0.34864,-2.42011 0.0767,-2.22018 1.1613,-3.23239 1.08462,-1.01222 2.99645,-0.9462 l 18.62486,0.64319 q 2.34353,0.0809 3.53437,1.35696 1.18871,1.3377 1.10991,3.61956 l -0.66874,19.36492 q -0.0788,2.28186 -1.29316,3.47482 -1.21436,1.19297 -3.49622,1.11417 -2.22018,-0.0767 -3.34935,-1.35057 -1.12916,-1.2739 -1.05036,-3.55575 l 0.46641,-13.50611 -9.68246,-0.33437 0.0894,-2.59022 q 1.67569,1.53976 2.45604,3.97477 0.84201,2.43715 0.74404,5.27405 -0.14269,4.132 -2.03979,7.2155 -1.83542,3.08562 -5.04031,4.70382 -3.20703,1.67986 -7.4007,1.53504 -4.44037,-0.15335 -7.7599,-2.36732 -3.25999,-2.15018 -4.97597,-6.09939 -1.65644,-3.88541 -1.47328,-9.18918 z"
           id="text125"
           style="font-size:61.7085px;font-family:Nunito;-inkscape-font-specification:'Nunito, @wght=900';font-variation-settings:'wght' 900;text-align:center;text-anchor:middle;fill:#0074d4;stroke-width:20.7374;stroke-linecap:round;paint-order:stroke fill markers"
           transform="translate(4.1793319e-6,2.125788e-5)"
           aria-label="SMP MUHAMMADIYAH 5"
           inkscape:label="text125" />
        <path
           d="m 311.24024,733.27609 q -1.1613,-1.55879 -0.9531,-2.9836 0.20821,-1.4248 1.80411,-2.61375 l 20.22711,-15.06925 q 1.63301,-1.2166 3.09493,-1.03604 1.49904,0.15291 2.49444,1.48901 0.8848,1.18765 0.93713,2.1875 0.0523,0.99985 -0.37856,2.59056 l -5.93208,22.71452 -0.7742,-1.03919 13.43525,-10.0093 q 1.55879,-1.1613 2.95595,-0.99021 1.4248,0.20821 2.5861,1.767 1.1613,1.55878 0.92545,2.94648 -0.20821,1.4248 -1.767,2.5861 l -20.56113,15.3181 q -1.41033,1.0507 -2.81695,0.94437 -1.36951,-0.13398 -2.30961,-1.39586 -0.9401,-1.26187 -1.04773,-2.33595 -0.0429,-1.06461 0.35091,-2.62767 l 5.96919,-22.74217 0.7742,1.03919 -13.43525,10.0093 q -1.5959,1.18894 -3.02071,0.98074 -1.39715,-0.1711 -2.55845,-1.72988 z m 31.20361,37.43814 q -3.92302,-3.99631 -5.19263,-8.2626 -1.23719,-4.23327 0.0115,-8.31263 1.24866,-4.07936 4.81561,-7.58089 2.7743,-2.72342 5.83009,-4.03696 3.12125,-1.31294 6.32764,-1.21781 3.23942,0.0627 6.39946,1.63013 3.22549,1.56804 6.20829,4.60655 1.62108,1.65137 2.97673,3.693 1.38868,2.00922 2.15105,4.50355 0.44664,1.24777 0.0118,2.25829 -0.36936,1.01113 -1.2917,1.65714 -0.85689,0.64662 -1.97134,0.83267 -1.049,0.18665 -2.02589,-0.34602 -0.94386,-0.5651 -1.45474,-1.94438 -0.51026,-1.44472 -1.41383,-2.82763 -0.87054,-1.41533 -2.13498,-2.70339 -2.17225,-2.21284 -4.42388,-2.92095 -2.21921,-0.67508 -4.48477,0.12214 -2.26556,0.79721 -4.51142,3.00189 -3.36879,3.307 -3.46513,6.6443 -0.0963,3.33729 3.08098,6.57397 0.97265,0.99082 2.30558,1.95224 1.36534,0.99446 2.89582,1.8268 l -3.38122,1.11417 5.64767,-5.5441 -2.26952,-2.31192 q -1.10233,-1.12293 -1.15688,-2.30161 -0.0221,-1.14566 1.00172,-2.15073 1.02385,-1.00508 2.13588,-0.92933 1.17747,0.0763 2.27981,1.19928 l 4.7984,4.88805 q 1.13476,1.15595 1.09083,2.36646 0.0215,1.2111 -1.13443,2.34586 l -7.29904,7.16519 q -0.99082,0.97265 -2.10588,1.22414 -1.08263,0.28453 -2.25526,-0.31541 -2.05226,-1.03354 -4.1327,-2.55825 -2.08043,-1.52471 -3.86362,-3.34121 z m 26.06075,22.84817 q -3.92877,-3.01466 -5.63504,-6.94907 -1.67809,-3.97113 -1.02008,-8.24981 0.69472,-4.2505 3.76573,-8.25271 2.3103,-3.01083 5.11592,-4.76654 2.84233,-1.72754 5.92042,-2.16579 3.11481,-0.41007 6.24252,0.5315 3.15589,0.90486 6.09329,3.15881 3.92877,3.01465 5.59832,6.92089 1.70627,3.93441 1.04826,8.21309 -0.62983,4.24196 -3.72901,8.28088 -2.3103,3.01084 -5.15264,4.73837 -2.80562,1.75572 -5.9486,2.2025 -3.07809,0.43825 -6.23398,-0.46661 -3.12771,-0.94157 -6.06511,-3.19551 z m 4.33885,-5.6545 q 1.94603,1.49324 4.00893,1.61776 2.06291,0.12451 4.12145,-1.03772 2.05855,-1.16224 3.91806,-3.58559 2.78926,-3.63503 2.72328,-6.89416 -0.066,-3.25914 -2.96666,-5.48491 -1.90931,-1.46507 -4.00893,-1.61776 -2.03474,-0.16123 -4.09328,1.00101 -2.03037,1.12551 -3.91805,3.58558 -2.78926,3.63503 -2.75146,6.93089 0.066,3.25913 2.96666,5.4849 z m 17.77315,20.96829 q -1.76884,-1.00898 -2.1833,-2.52416 -0.39154,-1.55538 0.61744,-3.32422 l 12.10782,-21.2261 q 1.03192,-1.80904 2.5471,-2.22351 1.55538,-0.39153 3.32422,0.61745 l 9.88943,5.64115 q 4.82411,2.75177 6.08421,6.61418 1.32324,3.84513 -1.06163,8.02602 -1.53641,2.69347 -3.88901,4.01557 -2.28947,1.30483 -5.15988,1.1061 -2.80727,-0.21601 -6.06354,-2.07346 l 0.73437,-0.54017 1.92965,1.10071 q 1.72864,0.98606 2.57371,2.58702 0.868,1.56075 0.7893,3.75369 l -0.0538,4.76465 q -0.0218,1.53273 -0.70408,2.63543 -0.65935,1.06249 -1.91633,1.30455 -1.19386,0.22479 -2.76169,-0.66954 -1.56784,-0.89433 -2.20596,-2.11083 -0.59792,-1.19357 -0.58207,-2.9961 l 0.17127,-8.80032 q 0.0221,-1.1596 -0.55828,-1.91691 -0.51724,-0.77457 -1.48206,-1.32493 l -2.21105,-1.26123 -4.10473,7.19597 q -1.00899,1.76884 -2.5069,2.24644 -1.47497,0.4374 -3.32422,-0.61745 z m 12.91694,-14.05108 4.90452,2.79764 q 2.13065,1.21537 3.73783,1.01323 1.60719,-0.20214 2.61618,-1.97098 0.96312,-1.68844 0.31905,-3.17474 -0.62113,-1.5265 -2.75178,-2.74187 l -4.90452,-2.79764 z m 27.20079,34.22722 q -4.59466,-1.84729 -7.29596,-5.17804 -2.68404,-3.37369 -3.20069,-7.67173 -0.47371,-4.28078 1.40811,-8.96132 1.41568,-3.52114 3.64591,-5.96656 2.27318,-2.42816 5.12008,-3.67789 2.88985,-1.23246 6.15555,-1.16653 3.28296,0.023 6.71822,1.40414 4.59466,1.84729 7.25303,5.16078 2.7013,3.33075 3.21795,7.62879 0.53392,4.2551 -1.36517,8.97858 -1.41568,3.52115 -3.68885,5.9493 -2.23023,2.44542 -5.13735,3.72083 -2.8469,1.24973 -6.12987,1.22674 -3.2657,-0.0659 -6.70096,-1.44709 z m 2.65872,-6.61287 q 2.27586,0.91501 4.29628,0.48027 2.02042,-0.43473 3.69066,-2.10766 1.67024,-1.67293 2.80969,-4.50702 1.70918,-4.25113 0.76933,-7.37251 -0.93985,-3.12137 -4.33217,-4.48526 -2.23292,-0.89775 -4.29628,-0.48028 -2.00316,0.3918 -3.6734,2.06472 -1.65298,1.62999 -2.80969,4.50702 -1.70918,4.25114 -0.78659,7.41545 0.93985,3.12138 4.33217,4.48527 z m 37.15458,9.12751 q -1.35655,-0.29587 -2.06367,-1.39749 -0.70711,-1.10162 -0.41124,-2.45817 0.29588,-1.35655 1.38764,-2.01845 1.10161,-0.70711 2.45816,-0.41123 l 8.95323,1.95278 q 1.35655,0.29588 2.06367,1.39749 0.71698,1.0564 0.4211,2.41295 -0.29587,1.35655 -1.39749,2.06367 -1.10162,0.70711 -2.45817,0.41124 z m 34.41364,15.67372 q -1.84974,-0.0749 -2.82591,-1.13341 -0.92994,-1.05667 -0.85507,-2.90641 l 1.03886,-25.66516 q 0.0768,-1.89599 1.17966,-2.82405 1.10478,-0.9743 3.04701,-0.89569 1.61852,0.0655 2.51719,0.75036 0.94678,0.64048 1.67489,2.10585 l 9.21984,18.25244 -1.61853,-0.0655 10.61864,-17.44944 q 0.89041,-1.39985 1.83962,-1.96358 0.99732,-0.6081 2.61584,-0.54259 1.84974,0.0749 2.77968,1.13154 0.97804,1.01229 0.9013,2.90828 l -1.03886,25.66516 q -0.0749,1.84974 -1.08717,2.82779 -1.01229,0.97805 -2.90828,0.9013 -1.84974,-0.0749 -2.82592,-1.13341 -0.92993,-1.05666 -0.85506,-2.9064 l 0.64391,-15.90778 0.97111,0.0393 -7.96931,12.64682 q -0.68859,0.99116 -1.44908,1.46989 -0.71424,0.4806 -1.91658,0.43193 -1.15608,-0.0468 -1.87539,-0.58542 -0.71931,-0.53863 -1.27929,-1.58032 l -6.96547,-13.29767 1.0636,0.0431 -0.64578,15.95402 q -0.0749,1.84974 -1.08717,2.82779 -1.01229,0.97805 -2.90828,0.90131 z m 53.67577,-0.79019 q -4.92287,0.53733 -8.87551,-1.12627 -3.95766,-1.70962 -6.43981,-5.2563 -2.43615,-3.55171 -2.98352,-8.5666 -0.41178,-3.77267 0.40196,-6.98076 0.85975,-3.21311 2.78109,-5.65753 1.96735,-2.44943 4.87834,-3.93107 2.90597,-1.52765 6.58662,-1.92939 4.92288,-0.53733 8.82951,1.13129 3.95264,1.6636 6.43479,5.21029 2.47713,3.50068 3.02952,8.56158 0.41179,3.77267 -0.44796,6.98578 -0.81375,3.20809 -2.77607,5.70353 -1.92134,2.44442 -4.82731,3.97207 -2.911,1.48164 -6.59165,1.88338 z m -0.77335,-7.08526 q 2.43843,-0.26615 4.01519,-1.60216 1.57676,-1.33601 2.2609,-3.59883 0.68414,-2.26282 0.3527,-5.29935 -0.49716,-4.55481 -2.79771,-6.8643 -2.30056,-2.30949 -5.9352,-1.91277 -2.39243,0.26113 -4.01519,1.60216 -1.58178,1.29 -2.26592,3.55282 -0.68916,2.21681 -0.3527,5.29936 0.49715,4.55481 2.80273,6.9103 2.30056,2.30949 5.9352,1.91277 z m 21.73685,3.79818 q -1.78912,0.4845 -3.00071,-0.29362 -1.17623,-0.83319 -1.52103,-2.41592 -0.26599,-1.22096 0.21529,-2.27315 0.48128,-1.05219 1.81819,-1.43817 l 1.24648,-0.36629 q 1.60824,-0.4451 2.22922,-1.29089 0.61113,-0.89101 0.25647,-2.51895 l -4.049,-18.58572 q -0.45317,-2.08015 0.40554,-3.35667 0.84886,-1.32173 2.83857,-1.7552 1.98972,-0.43347 3.31145,0.41539 1.31188,0.80364 1.76506,2.88379 l 4.01944,18.45006 q 0.67976,3.12023 0.0221,5.53711 -0.66749,2.37166 -2.67239,4.03998 -1.96953,1.61325 -5.27645,2.52315 z m 33.46782,-8.74894 q -4.69555,1.57327 -8.91179,0.78948 -4.23093,-0.82767 -7.41138,-3.76448 -3.13656,-2.95151 -4.73924,-7.73483 -1.20568,-3.59846 -1.09372,-6.90625 0.15585,-3.3225 1.51262,-6.11997 1.40065,-2.81218 3.92939,-4.8797 2.51403,-2.11141 6.02472,-3.28768 4.69556,-1.57327 8.86791,-0.77478 4.21623,0.78379 7.39667,3.7206 3.16575,2.89292 4.78313,7.72012 1.20568,3.59847 1.04983,6.92096 -0.11196,3.30779 -1.49791,6.16386 -1.35677,2.79748 -3.8708,4.90888 -2.52874,2.06752 -6.03943,3.24379 z m -2.26433,-6.75808 q 2.32584,-0.77929 3.58195,-2.42041 1.25611,-1.64111 1.44272,-3.99772 0.18661,-2.3566 -0.78382,-5.25292 -1.45564,-4.34448 -4.19521,-6.11113 -2.73957,-1.76666 -6.20638,-0.60508 -2.28195,0.76457 -3.58194,2.4204 -1.27082,1.59723 -1.45743,3.95383 -0.20131,2.31272 0.78382,5.25293 1.45564,4.34448 4.20991,6.15502 2.73957,1.76665 6.20638,0.60508 z m 27.32476,-3.01278 q -1.82436,0.90474 -3.31296,0.40312 -1.50916,-0.54308 -2.4139,-2.36745 l -11.04187,-22.26553 q -0.94586,-1.90729 -0.42368,-3.35443 0.50162,-1.4886 2.32598,-2.39333 1.86583,-0.9253 3.31297,-0.40312 1.46803,0.46015 2.41389,2.36744 l 4.48255,9.0389 0.0829,-0.0411 4.56482,-16.10863 q 0.37655,-1.21994 1.02108,-2.10784 0.66544,-0.94992 1.78494,-1.5051 1.74144,-0.86361 2.94013,-0.32154 1.2196,0.48004 1.73298,1.72358 0.53428,1.18152 0.11559,2.629 l -4.74954,15.63198 -1.54216,-3.10971 16.43289,6.67705 q 1.67434,0.66781 2.31177,1.95315 0.61686,1.24389 0.15738,2.50495 -0.41801,1.2405 -2.07652,2.06298 -1.40974,0.69912 -2.54777,0.59191 -1.11712,-0.16924 -2.66741,-0.79525 l -15.73039,-6.30219 -0.0829,0.0411 4.81154,9.7023 q 0.90474,1.82437 0.46514,3.33387 -0.46015,1.46803 -2.36744,2.41389 z m 29.86063,-16.48257 q -1.8189,1.19299 -3.39558,0.89876 -1.56337,-0.35831 -2.73098,-2.13851 l -13.07211,-19.93046 q -1.16761,-1.7802 -0.84799,-3.31818 0.33292,-1.60207 2.15182,-2.79506 l 13.11927,-8.60475 q 1.3932,-0.91378 2.54669,-0.67407 1.15349,0.23971 2.0165,1.55551 0.8884,1.3545 0.67407,2.54669 -0.23971,1.15348 -1.63291,2.06726 l -10.02328,6.57413 3.40129,5.18579 9.17188,-6.01571 q 1.3545,-0.88839 2.50799,-0.64868 1.19219,0.21432 2.08058,1.56882 0.8884,1.3545 0.60999,2.53337 -0.23971,1.15349 -1.59421,2.04188 l -9.17188,6.01571 3.6805,5.61149 10.02328,-6.57413 q 1.3932,-0.91378 2.57207,-0.63537 1.15349,0.23971 2.0165,1.55551 0.8884,1.35449 0.64869,2.50798 -0.23971,1.15349 -1.63291,2.06727 z m 24.22712,-16.36388 q -1.55968,1.30929 -3.12458,1.17271 -1.59465,-0.17202 -2.90394,-1.7317 l -15.7115,-18.71617 q -1.33905,-1.59513 -1.20248,-3.16002 0.17203,-1.59465 1.73171,-2.90394 l 8.72003,-7.32014 q 4.25368,-3.57079 8.31339,-3.41358 4.06541,0.092 7.1601,3.77852 1.99369,2.37497 2.41811,5.04003 0.4301,2.59986 -0.75152,5.22331 -1.17593,2.55824 -4.04716,4.96853 l -0.25204,-0.8761 1.70147,-1.42832 q 1.52423,-1.27954 3.31888,-1.51711 1.7649,-0.27303 3.79452,0.56111 l 4.45046,1.70243 q 1.4301,0.55186 2.22783,1.57415 0.76799,0.98683 0.55921,2.24977 -0.20308,1.19774 -1.58552,2.35825 -1.38245,1.1605 -2.74474,1.33726 -1.32684,0.14701 -3.01206,-0.49283 l -8.19506,-3.21184 q -1.08002,-0.42276 -1.99157,-0.14096 -0.90586,0.21659 -1.7566,0.93075 l -1.9496,1.63661 5.32644,6.34507 q 1.30929,1.55968 1.23792,3.13027 -0.10113,1.53513 -1.7317,2.90394 z m -8.70102,-16.98742 4.32457,-3.63031 q 1.87871,-1.5771 2.24634,-3.15468 0.36764,-1.57758 -0.94166,-3.13726 -1.24977,-1.48879 -2.86719,-1.4 -1.64717,0.0534 -3.52587,1.63045 l -4.32457,3.63031 z m 38.39057,-10.43076 q -1.39638,1.48223 -2.96652,1.52905 -1.60383,0.0151 -3.08606,-1.38128 l -15.86653,-14.94756 -4.98252,5.28884 q -1.17422,1.24641 -2.44899,1.31717 -1.27672,0.005 -2.48944,-1.13715 -1.24642,-1.17423 -1.28349,-2.41726 -0.005,-1.27671 1.16889,-2.52313 l 15.80443,-16.77607 q 1.17422,-1.24642 2.41725,-1.28349 1.27477,-0.0708 2.52119,1.10347 1.21272,1.14249 1.25175,2.45094 0.0371,1.24303 -1.13716,2.48945 l -4.98252,5.28884 15.86653,14.94756 q 1.48222,1.39638 1.59447,2.96457 0.0786,1.53646 -1.38128,3.08605 z m 20.88516,-25.16298 q -2.90985,4.00701 -6.79783,5.81659 -3.92542,1.78238 -8.21999,1.23759 -4.26737,-0.58224 -8.34928,-3.54648 -3.07079,-2.22999 -4.89998,-4.98826 -1.802,-2.79572 -2.32138,-5.86117 -0.49218,-3.10289 0.36646,-6.25438 0.8212,-3.17868 2.99679,-6.17458 2.90986,-4.00701 6.77064,-5.77914 3.88798,-1.80957 8.18254,-1.26478 4.25712,0.51759 8.37647,3.50903 3.0708,2.22998 4.87279,5.0257 1.8292,2.75828 2.35883,5.88837 0.51938,3.06544 -0.30182,6.24412 -0.85864,3.15149 -3.03424,6.14739 z m -5.7671,-4.18802 q 1.44133,-1.98478 1.51133,-4.05025 0.07,-2.06548 -1.1462,-4.09261 -1.21619,-2.02713 -3.68781,-3.822 -3.70742,-2.69229 -6.96368,-2.54027 -3.25625,0.15203 -5.40465,3.11048 -1.41413,1.94733 -1.51132,4.05025 -0.10744,2.03828 1.10875,4.06542 1.17874,1.99993 3.68781,3.82199 3.70742,2.6923 7.00112,2.56747 3.25626,-0.15203 5.40465,-3.11048 z"
           id="text126"
           style="font-size:46.2814px;font-family:Nunito;-inkscape-font-specification:'Nunito, @wght=900';font-variation-settings:'wght' 900;text-align:center;letter-spacing:0.964195px;baseline-shift:baseline;text-anchor:middle;fill:#0074d4;stroke-width:20.7374;stroke-linecap:round;paint-order:stroke fill markers"
           transform="translate(4.1793319e-6,2.125788e-5)"
           aria-label="NGORO - MOJOKERTO"
           inkscape:label="text126" />
      </g>
    </g>
  </g>
  <metadata
     id="metadata5284">
    <rdf:RDF>
      <cc:Work
         rdf:about="">
        <cc:license
           rdf:resource="http://creativecommons.org/licenses/by-nc-sa/4.0/" />
        <dc:title>Al-Mujahidin Mosque Favicon Logo</dc:title>
        <dc:creator>
          <cc:Agent>
            <dc:title>Hervy Qurrotul Ainur Rozi</dc:title>
          </cc:Agent>
        </dc:creator>
      </cc:Work>
      <cc:License
         rdf:about="http://creativecommons.org/licenses/by-nc-sa/4.0/">
        <cc:permits
           rdf:resource="http://creativecommons.org/ns#Reproduction" />
        <cc:permits
           rdf:resource="http://creativecommons.org/ns#Distribution" />
        <cc:requires
           rdf:resource="http://creativecommons.org/ns#Notice" />
        <cc:requires
           rdf:resource="http://creativecommons.org/ns#Attribution" />
        <cc:prohibits
           rdf:resource="http://creativecommons.org/ns#CommercialUse" />
        <cc:permits
           rdf:resource="http://creativecommons.org/ns#DerivativeWorks" />
        <cc:requires
           rdf:resource="http://creativecommons.org/ns#ShareAlike" />
      </cc:License>
    </rdf:RDF>
  </metadata>
</svg>
